<svg width="112" height="159" viewBox="0 0 112 159" fill="none" xmlns="http://www.w3.org/2000/svg">
<path d="M16.9404 114.466H19.0623V129.625H16.9404V114.466ZM33.2057 129.625C32.8848 129.085 32.5129 128.48 32.09 127.809C31.6817 127.139 31.2369 126.446 30.7557 125.731C30.2744 125.002 29.7713 124.266 29.2463 123.522C28.7359 122.778 28.2254 122.064 27.715 121.378C27.2046 120.678 26.7088 120.022 26.2275 119.409C25.7463 118.797 25.3015 118.257 24.8932 117.791V129.625H22.815V114.466H24.4994C25.1848 115.195 25.914 116.048 26.6869 117.025C27.4744 117.988 28.2473 118.986 29.0057 120.022C29.7786 121.043 30.5004 122.049 31.1713 123.041C31.8567 124.032 32.4327 124.915 32.8994 125.688V114.466H34.9775V129.625H33.2057ZM49.1206 129.625C48.7997 129.085 48.4279 128.48 48.0049 127.809C47.5966 127.139 47.1518 126.446 46.6706 125.731C46.1893 125.002 45.6862 124.266 45.1612 123.522C44.6508 122.778 44.1404 122.064 43.6299 121.378C43.1195 120.678 42.6237 120.022 42.1424 119.409C41.6612 118.797 41.2164 118.257 40.8081 117.791V129.625H38.7299V114.466H40.4143C41.0997 115.195 41.8289 116.048 42.6018 117.025C43.3893 117.988 44.1622 118.986 44.9206 120.022C45.6935 121.043 46.4154 122.049 47.0862 123.041C47.7716 124.032 48.3477 124.915 48.8143 125.688V114.466H50.8924V129.625H49.1206ZM54.0324 122.034C54.0324 120.736 54.2219 119.592 54.6011 118.6C54.9949 117.608 55.5199 116.784 56.1761 116.128C56.8469 115.457 57.6199 114.954 58.4949 114.619C59.3844 114.283 60.3251 114.116 61.3167 114.116C62.2938 114.116 63.2126 114.283 64.073 114.619C64.948 114.954 65.7136 115.457 66.3699 116.128C67.0261 116.784 67.5438 117.608 67.923 118.6C68.3167 119.592 68.5136 120.736 68.5136 122.034C68.5136 123.332 68.3167 124.477 67.923 125.469C67.5438 126.46 67.0261 127.292 66.3699 127.963C65.7136 128.619 64.948 129.115 64.073 129.45C63.2126 129.785 62.2938 129.953 61.3167 129.953C60.3251 129.953 59.3844 129.785 58.4949 129.45C57.6199 129.115 56.8469 128.619 56.1761 127.963C55.5199 127.292 54.9949 126.46 54.6011 125.469C54.2219 124.477 54.0324 123.332 54.0324 122.034ZM56.2636 122.034C56.2636 122.953 56.3803 123.792 56.6136 124.55C56.8469 125.294 57.1751 125.928 57.598 126.453C58.0355 126.978 58.5605 127.386 59.173 127.678C59.8001 127.955 60.5001 128.094 61.273 128.094C62.0459 128.094 62.7386 127.955 63.3511 127.678C63.9636 127.386 64.4813 126.978 64.9042 126.453C65.3417 125.928 65.6772 125.294 65.9105 124.55C66.1438 123.792 66.2605 122.953 66.2605 122.034C66.2605 121.116 66.1438 120.284 65.9105 119.541C65.6772 118.782 65.3417 118.141 64.9042 117.616C64.4813 117.091 63.9636 116.69 63.3511 116.413C62.7386 116.121 62.0459 115.975 61.273 115.975C60.5001 115.975 59.8001 116.121 59.173 116.413C58.5605 116.69 58.0355 117.091 57.598 117.616C57.1751 118.141 56.8469 118.782 56.6136 119.541C56.3803 120.284 56.2636 121.116 56.2636 122.034ZM83.5575 114.466C83.0033 116.07 82.471 117.557 81.9606 118.928C81.4647 120.284 80.9762 121.575 80.495 122.8C80.0137 124.025 79.5325 125.199 79.0512 126.322C78.5845 127.43 78.1033 128.531 77.6075 129.625H75.6168C75.121 128.531 74.6325 127.43 74.1512 126.322C73.6845 125.199 73.2033 124.025 72.7075 122.8C72.2262 121.575 71.7304 120.284 71.22 118.928C70.7095 117.557 70.1845 116.07 69.645 114.466H71.9856C72.7731 116.77 73.546 118.986 74.3043 121.116C75.0627 123.245 75.8429 125.243 76.645 127.109C77.447 125.257 78.2272 123.267 78.9856 121.138C79.7439 118.994 80.5095 116.77 81.2825 114.466H83.5575ZM94.4452 129.625C94.1973 128.969 93.964 128.327 93.7452 127.7C93.5265 127.058 93.3004 126.409 93.0671 125.753H86.1984L84.8202 129.625H82.6109C83.1942 128.021 83.7411 126.541 84.2515 125.184C84.7619 123.814 85.2577 122.516 85.739 121.291C86.2348 120.066 86.7234 118.899 87.2046 117.791C87.6859 116.668 88.189 115.559 88.714 114.466H90.6609C91.1859 115.559 91.689 116.668 92.1702 117.791C92.6515 118.899 93.1327 120.066 93.614 121.291C94.1098 122.516 94.6129 123.814 95.1234 125.184C95.6338 126.541 96.1806 128.021 96.764 129.625H94.4452ZM92.4546 124.003C91.9879 122.734 91.5213 121.509 91.0546 120.328C90.6025 119.132 90.1286 117.988 89.6327 116.894C89.1223 117.988 88.6338 119.132 88.1671 120.328C87.715 121.509 87.2629 122.734 86.8109 124.003H92.4546ZM12.0188 154.625C11.7709 153.969 11.5375 153.327 11.3188 152.7C11.1 152.058 10.874 151.409 10.6407 150.753H3.7719L2.39378 154.625H0.184403C0.767737 153.021 1.31461 151.541 1.82503 150.184C2.33544 148.814 2.83128 147.516 3.31253 146.291C3.80836 145.066 4.2969 143.899 4.77815 142.791C5.2594 141.668 5.76253 140.559 6.28753 139.466H8.2344C8.7594 140.559 9.26253 141.668 9.74378 142.791C10.225 143.899 10.7063 145.066 11.1875 146.291C11.6834 147.516 12.1865 148.814 12.6969 150.184C13.2073 151.541 13.7542 153.021 14.3375 154.625H12.0188ZM10.0282 149.003C9.56149 147.734 9.09482 146.509 8.62815 145.328C8.17607 144.132 7.70211 142.988 7.20628 141.894C6.69586 142.988 6.20732 144.132 5.74065 145.328C5.28857 146.509 4.83649 147.734 4.3844 149.003H10.0282ZM25.2429 147.166H27.3648V154.253C27.1898 154.311 26.9346 154.377 26.5991 154.45C26.2783 154.523 25.8991 154.596 25.4616 154.669C25.0387 154.742 24.5721 154.8 24.0616 154.844C23.5512 154.902 23.0335 154.931 22.5085 154.931C21.4439 154.931 20.4741 154.756 19.5991 154.406C18.7241 154.056 17.9731 153.546 17.346 152.875C16.7189 152.204 16.2304 151.38 15.8804 150.403C15.545 149.426 15.3773 148.303 15.3773 147.034C15.3773 145.766 15.5669 144.643 15.946 143.666C16.3398 142.674 16.8648 141.843 17.521 141.172C18.1773 140.501 18.9429 139.991 19.8179 139.641C20.7075 139.291 21.6554 139.116 22.6616 139.116C23.3471 139.116 23.9523 139.159 24.4773 139.247C25.0169 139.334 25.4762 139.436 25.8554 139.553C26.2346 139.67 26.5408 139.786 26.7741 139.903C27.0221 140.02 27.1898 140.107 27.2773 140.166L26.5991 141.938C26.1762 141.66 25.6148 141.434 24.9148 141.259C24.2148 141.07 23.5002 140.975 22.771 140.975C21.9981 140.975 21.2908 141.114 20.6491 141.391C20.0221 141.668 19.4825 142.069 19.0304 142.594C18.5929 143.119 18.2502 143.76 18.0023 144.519C17.7544 145.263 17.6304 146.101 17.6304 147.034C17.6304 147.939 17.7325 148.763 17.9366 149.506C18.1554 150.25 18.4762 150.892 18.8991 151.431C19.3366 151.956 19.8689 152.365 20.496 152.656C21.1377 152.948 21.8887 153.094 22.7491 153.094C23.3616 153.094 23.8794 153.065 24.3023 153.006C24.7398 152.933 25.0533 152.868 25.2429 152.809V147.166ZM38.1027 148.281C38.336 148.573 38.6277 148.959 38.9777 149.441C39.3422 149.907 39.7141 150.432 40.0933 151.016C40.4725 151.584 40.8443 152.182 41.2089 152.809C41.5881 153.436 41.9089 154.042 42.1714 154.625H39.8527C39.561 154.071 39.2402 153.509 38.8902 152.941C38.5547 152.372 38.212 151.832 37.862 151.322C37.512 150.797 37.162 150.308 36.812 149.856C36.4766 149.404 36.1704 149.01 35.8933 148.675C35.7037 148.69 35.5068 148.697 35.3027 148.697C35.1131 148.697 34.9162 148.697 34.712 148.697H32.8089V154.625H30.687V139.684C31.285 139.539 31.9485 139.444 32.6777 139.4C33.4214 139.342 34.0995 139.313 34.712 139.313C36.8412 139.313 38.46 139.714 39.5683 140.516C40.6912 141.318 41.2527 142.514 41.2527 144.103C41.2527 145.109 40.9829 145.97 40.4433 146.684C39.9183 147.399 39.1381 147.931 38.1027 148.281ZM34.887 141.172C33.9829 141.172 33.2902 141.194 32.8089 141.238V146.947H34.3183C35.0475 146.947 35.7037 146.91 36.287 146.838C36.8704 146.765 37.3589 146.626 37.7527 146.422C38.161 146.218 38.4745 145.933 38.6933 145.569C38.912 145.19 39.0214 144.694 39.0214 144.081C39.0214 143.513 38.912 143.039 38.6933 142.659C38.4745 142.28 38.1756 141.981 37.7964 141.763C37.4318 141.544 36.9943 141.391 36.4839 141.303C35.9881 141.216 35.4558 141.172 34.887 141.172ZM43.5969 147.034C43.5969 145.736 43.7865 144.592 44.1656 143.6C44.5594 142.608 45.0844 141.784 45.7406 141.128C46.4115 140.457 47.1844 139.954 48.0594 139.619C48.949 139.283 49.8896 139.116 50.8812 139.116C51.8583 139.116 52.7771 139.283 53.6375 139.619C54.5125 139.954 55.2781 140.457 55.9344 141.128C56.5906 141.784 57.1083 142.608 57.4875 143.6C57.8812 144.592 58.0781 145.736 58.0781 147.034C58.0781 148.332 57.8812 149.477 57.4875 150.469C57.1083 151.46 56.5906 152.292 55.9344 152.963C55.2781 153.619 54.5125 154.115 53.6375 154.45C52.7771 154.785 51.8583 154.953 50.8812 154.953C49.8896 154.953 48.949 154.785 48.0594 154.45C47.1844 154.115 46.4115 153.619 45.7406 152.963C45.0844 152.292 44.5594 151.46 44.1656 150.469C43.7865 149.477 43.5969 148.332 43.5969 147.034ZM45.8281 147.034C45.8281 147.953 45.9448 148.792 46.1781 149.55C46.4115 150.294 46.7396 150.928 47.1625 151.453C47.6 151.978 48.125 152.386 48.7375 152.678C49.3646 152.955 50.0646 153.094 50.8375 153.094C51.6104 153.094 52.3031 152.955 52.9156 152.678C53.5281 152.386 54.0458 151.978 54.4687 151.453C54.9062 150.928 55.2417 150.294 55.475 149.55C55.7083 148.792 55.825 147.953 55.825 147.034C55.825 146.116 55.7083 145.284 55.475 144.541C55.2417 143.782 54.9062 143.141 54.4687 142.616C54.0458 142.091 53.5281 141.69 52.9156 141.413C52.3031 141.121 51.6104 140.975 50.8375 140.975C50.0646 140.975 49.3646 141.121 48.7375 141.413C48.125 141.69 47.6 142.091 47.1625 142.616C46.7396 143.141 46.4115 143.782 46.1781 144.541C45.9448 145.284 45.8281 146.116 45.8281 147.034ZM70.7651 139.466V141.303H65.9964V154.625H63.8745V141.303H59.1057V139.466H70.7651ZM73.0058 154.625V139.466H82.2589V141.281H75.1276V145.788H81.4714V147.559H75.1276V152.809H82.8058V154.625H73.0058ZM91.402 154.953C90.3374 154.953 89.3676 154.778 88.4926 154.428C87.6176 154.078 86.8665 153.568 86.2395 152.897C85.6124 152.226 85.1238 151.402 84.7738 150.425C84.4384 149.433 84.2707 148.303 84.2707 147.034C84.2707 145.766 84.4603 144.643 84.8395 143.666C85.2332 142.674 85.7582 141.843 86.4145 141.172C87.0707 140.501 87.8363 139.991 88.7113 139.641C89.5863 139.291 90.5197 139.116 91.5113 139.116C92.1384 139.116 92.6999 139.159 93.1957 139.247C93.7061 139.334 94.1436 139.436 94.5082 139.553C94.8874 139.67 95.1936 139.786 95.427 139.903C95.6603 140.02 95.8207 140.107 95.9082 140.166L95.2957 141.916C95.1645 141.828 94.9749 141.733 94.727 141.631C94.479 141.529 94.1947 141.427 93.8738 141.325C93.5676 141.223 93.2249 141.143 92.8457 141.084C92.4811 141.011 92.1092 140.975 91.7301 140.975C90.928 140.975 90.2061 141.114 89.5645 141.391C88.9228 141.668 88.3759 142.069 87.9238 142.594C87.4717 143.119 87.1217 143.76 86.8738 144.519C86.6405 145.263 86.5238 146.101 86.5238 147.034C86.5238 147.939 86.6259 148.763 86.8301 149.506C87.0488 150.25 87.3697 150.892 87.7926 151.431C88.2155 151.956 88.7405 152.365 89.3676 152.656C90.0092 152.948 90.753 153.094 91.5988 153.094C92.5759 153.094 93.3853 152.992 94.027 152.788C94.6686 152.583 95.1499 152.401 95.4707 152.241L96.0176 153.991C95.9155 154.064 95.7332 154.158 95.4707 154.275C95.2082 154.377 94.8801 154.479 94.4863 154.581C94.0926 154.683 93.6332 154.771 93.1082 154.844C92.5832 154.917 92.0145 154.953 91.402 154.953ZM107.986 139.466H110.108V154.625H107.986V147.625H100.57V154.625H98.4483V139.466H100.57V145.788H107.986V139.466Z" fill="#C3F98F"/>
<path d="M42.0771 97.4244L47.2185 94.2706L51.5982 91.4877L57.3109 88.1483L65.1183 83.8813L71.783 80.5419L78.8287 77.5736L87.2073 74.6052L91.0157 73.3066L92.92 72.75H93.6817L94.0625 73.3066L93.6817 74.2342L92.3487 78.3157L89.4924 83.8813L84.3509 90.0036L78.2574 95.3837L71.4022 99.2797L65.1183 101.506L59.0247 102.062H53.6929L49.8844 101.506L45.8856 100.578L42.0771 99.2797L41.125 98.7231V98.1665L42.0771 97.4244Z" fill="#C3F98F" stroke="#C3F98F" stroke-width="0.4375"/>
<path d="M57.9975 19.9823L57.4276 23.8904L57.0477 24.4487L56.8577 22.7738L56.4778 20.7267L56.0979 19.2379L55.528 17.3769L54.7681 14.9576L53.6283 12.9104L52.6785 11.4216L51.1587 9.93284L49.259 8.81623L50.2089 9.93284L51.1587 11.2355L51.9186 12.9104L52.8684 15.3298L53.6283 17.3769L54.3882 20.5406L54.7681 22.0294L54.9581 23.146V23.7043V24.4487L54.7681 25.9375L53.6283 25.5653L51.9186 24.8209L49.0691 22.7738L46.5995 19.9823L45.2697 17.3769L43.94 12.3521L43.75 8.25793L43.94 5.09422L44.5099 1L45.2697 1.1861L46.5995 1.7444L49.0691 3.23321L51.5387 5.09422L53.6283 6.76912L55.528 8.63013L56.8577 10.8633L57.9975 14.5854L58.1875 17.3769L57.9975 19.9823Z" fill="#C3F98F" stroke="#C3F98F" stroke-width="0.4375"/>
<path d="M23.1875 83.1818L23.9514 82.6243L33.309 77.9788L51.8333 70.7319L66.1562 66.6438L80.0972 63.8565L89.6458 62.1841L93.2743 61.8125L94.9931 62.1841L95.375 63.1132V67.0155L94.9931 67.9446L94.2292 68.3162L75.3229 74.4483L66.5382 78.5363L58.1354 83.1818L47.8229 88.9422L40.7569 93.5877L37.5104 96.0034L36.5556 96.375L35.6007 96.0034L34.0729 94.8884L29.8715 91.7295L27.0069 88.9422L24.5243 85.9691L23.5694 84.2967L23.1875 83.7392V83.1818Z" fill="#C3F98F" stroke="#C3F98F" stroke-width="0.4375"/>
<path d="M16.8171 66.3661L16.625 60.4477L16.8171 59.8929L17.7774 59.523L20.6585 58.7832L29.1098 56.1939L39.6738 54.3444L48.125 53.2347L51.5823 52.8648L52.3506 52.4949L52.5427 51.3852L52.7348 48.611L53.1189 41.7679L53.8872 36.5893L57.1524 29.3763L61.7622 23.8278L66.564 20.3138L71.1738 18.2793L78.8567 16.2449L85.1951 15.875L84.2348 22.7181L82.5061 28.0816L78.8567 33.8151L73.2866 38.8087L70.7896 40.4732L64.0671 42.6926L58.8811 43.2474V42.6926L59.2652 39.3635L60.8018 35.6645L62.9146 31.5957L65.7957 27.8967L69.253 24.5676L72.7104 21.9783L70.5976 22.7181L66.1799 25.1224L62.7226 28.0816L60.0335 31.2258L56.7683 37.699L55.8079 41.398V45.4668V51.0153L56 52.3099L56.5762 52.4949H80.2012L89.0366 52.8648L94.4146 53.2347L95.1829 53.4196L95.375 53.9745V57.6735L95.1829 58.0434L94.6067 58.2283L90.9573 58.4133L82.1219 59.7079L74.0549 61.0025L69.253 62.1122L61.7622 63.9617L54.0793 65.9962L49.2774 67.4758L45.2439 68.7704L40.25 70.6199L33.1433 73.3941L25.8445 77.0931L22.003 79.1275L20.6585 79.3125L19.8902 78.7576L18.3537 75.4286L17.3933 72.4694L16.8171 66.3661Z" fill="#C3F98F" stroke="#C3F98F" stroke-width="0.4375"/>
<path d="M48.44 40.5341L49.21 42.1937V42.5625H48.6325L45.745 42.1937L43.435 41.8249L40.9325 41.0873L38.2375 39.7965L36.89 39.0589L35.1575 37.5837L34.195 36.6617L31.5 33.3425L29.3825 29.6544L27.8425 25.782L26.6875 20.25L32.0775 20.6188L35.735 20.9876L39.585 21.9096L42.665 23.016L44.7825 24.6756L47.285 27.2572L49.21 30.392L50.365 33.3425L50.75 36.2929V37.7681L50.365 39.7965L49.595 38.3213L48.6325 36.6617L46.9 34.0801L45.1675 31.4984L43.435 29.6544L41.3175 27.8104L38.815 26.1508L35.35 25.0444L36.3125 25.782L37.66 27.2572L39.2 28.7324L40.5475 30.392L42.28 32.2361L43.82 34.0801L45.1675 35.9241L46.9 38.3213L48.44 40.5341Z" fill="#C3F98F" stroke="#C3F98F" stroke-width="0.4375"/>
</svg>
