
<svg width="42" height="55" viewBox="0 0 42 55" fill="none" xmlns="http://www.w3.org/2000/svg">
<path d="M14.0977 51.1805L16.7264 49.5586L18.9658 48.1274L21.8867 46.4101L25.8785 44.2157L29.2862 42.4983L32.8887 40.9718L37.1726 39.4452L39.1199 38.7773L40.0935 38.4911H40.4829L40.6777 38.7773L40.4829 39.2544L39.8014 41.3534L38.341 44.2157L35.7122 47.3642L32.5966 50.131L29.0915 52.1346L25.8785 53.2795L22.7629 53.5657H20.0368L18.0895 53.2795L16.0449 52.8025L14.0977 52.1346L13.6108 51.8484V51.5621L14.0977 51.1805Z" fill="#136E43" stroke="#136E43" stroke-width="1.00662"/>
<path d="M22.2379 11.3541L21.9465 13.364L21.7522 13.6511L21.6551 12.7897L21.4608 11.737L21.2666 10.9713L20.9752 10.0143L20.5867 8.77007L20.0039 7.7173L19.5182 6.95165L18.7412 6.186L17.7699 5.61176L18.2555 6.186L18.7412 6.85594L19.1297 7.7173L19.6154 8.96149L20.0039 10.0143L20.3924 11.6413L20.5867 12.4069L20.6838 12.9812V13.2683V13.6511L20.5867 14.4168L20.0039 14.2253L19.1297 13.8425L17.6728 12.7897L16.4101 11.3541L15.7302 10.0143L15.0503 7.43018L14.9531 5.32464L15.0503 3.69763L15.3416 1.59209L15.7302 1.68779L16.4101 1.97491L17.6728 2.74056L18.9354 3.69763L20.0039 4.55899L20.9752 5.51605L21.6551 6.66453L22.2379 8.57866L22.335 10.0143L22.2379 11.3541Z" fill="#459443" stroke="#459443" stroke-width="1.00662"/>
<path d="M4.43945 43.8559L4.83003 43.5692L9.61457 41.1802L19.086 37.4532L26.4093 35.3509L33.5373 33.9174L38.4195 33.0574L40.2747 32.8663L41.1535 33.0574L41.3488 33.5352V35.542L41.1535 36.0198L40.7629 36.2109L31.0962 39.3645L26.6046 41.4668L22.3082 43.8559L17.0355 46.8183L13.4227 49.2074L11.7627 50.4497L11.2745 50.6408L10.7863 50.4497L10.0051 49.8763L7.85698 48.2518L6.39233 46.8183L5.12296 45.2893L4.63474 44.4293L4.43945 44.1426V43.8559Z" fill="#459443" stroke="#459443" stroke-width="1.00662"/>
<path d="M1.18219 35.208L1.08398 32.1644L1.18219 31.879L1.67322 31.6888L3.14632 31.3083L7.46741 29.9767L12.8688 29.0256L17.1899 28.4549L18.9576 28.2647L19.3504 28.0745L19.4486 27.5038L19.5468 26.0771L19.7432 22.5578L20.1361 19.8946L21.8056 16.1852L24.1625 13.3318L26.6177 11.5246L28.9747 10.4783L32.9029 9.43209L36.1437 9.24186L35.6527 12.7611L34.7688 15.5194L32.9029 18.4679L30.0549 21.036L28.7782 21.892L25.341 23.0334L22.6894 23.3188V23.0334L22.8859 21.3214L23.6715 19.4191L24.7518 17.3266L26.2249 15.4243L27.9926 13.7122L29.7603 12.3806L28.68 12.7611L26.4213 13.9976L24.6536 15.5194L23.2787 17.1363L21.6092 20.4653L21.1181 22.3676V24.4601V27.3136L21.2163 27.9794L21.511 28.0745H33.5904L38.1079 28.2647L40.8577 28.4549L41.2505 28.55L41.3487 28.8354V30.7377L41.2505 30.9279L40.9559 31.023L39.0899 31.1181L34.5724 31.7839L30.4478 32.4497L27.9926 33.0204L24.1625 33.9715L20.2343 35.0178L17.7791 35.7787L15.7168 36.4445L13.1634 37.3957L9.52975 38.8224L5.7979 40.7246L3.83377 41.7709L3.14632 41.866L2.7535 41.5807L1.96784 39.8686L1.47681 38.3468L1.18219 35.208Z" fill="#7FBD42" stroke="#7FBD42" stroke-width="1.00662"/>
<path d="M17.351 21.9234L17.7447 22.7769V22.9665H17.4494L15.9731 22.7769L14.792 22.5872L13.5124 22.2079L12.1345 21.544L11.4455 21.1647L10.5597 20.4061L10.0676 19.9319L8.68962 18.2249L7.60695 16.3283L6.81955 14.3368L6.229 11.4918L8.9849 11.6815L10.855 11.8712L12.8235 12.3453L14.3983 12.9143L15.4809 13.7678L16.7605 15.0955L17.7447 16.7076L18.3353 18.2249L18.5321 19.7422V20.5009L18.3353 21.544L17.9416 20.7854L17.4494 19.9319L16.5636 18.6042L15.6778 17.2766L14.792 16.3283L13.7093 15.38L12.4298 14.5265L10.6581 13.9575L11.1502 14.3368L11.8392 15.0955L12.6266 15.8541L13.3156 16.7076L14.2014 17.6559L14.9888 18.6042L15.6778 19.5526L16.5636 20.7854L17.351 21.9234Z" fill="#136E43" stroke="#136E43" stroke-width="1.00662"/>
</svg>