
<svg width="523" height="641" viewBox="0 0 523 641" fill="none" xmlns="http://www.w3.org/2000/svg">
<rect width="523" height="613.645" rx="25" fill="url(#paint0_linear_17_12)"/>
<path d="M266.807 404.347C266.807 409.445 265.801 414.342 263.789 419.037C261.777 423.732 259.161 428.293 255.941 432.72C252.722 437.013 249.099 441.171 245.075 445.196C241.051 449.22 237.093 453.044 233.203 456.666C231.191 458.544 228.977 460.69 226.562 463.105C224.282 465.385 222.068 467.733 219.922 470.148C217.776 472.562 215.83 474.843 214.086 476.989C212.477 479.002 211.471 480.678 211.068 482.02H271.033V507.173H178.067C177.799 505.697 177.665 503.819 177.665 501.539C177.665 499.258 177.665 497.648 177.665 496.709C177.665 490.27 178.671 484.368 180.683 479.002C182.83 473.636 185.58 468.672 188.933 464.111C192.287 459.416 196.043 455.056 200.202 451.031C204.495 447.007 208.72 442.982 212.879 438.958C216.099 435.873 219.117 432.988 221.934 430.305C224.751 427.488 227.233 424.805 229.38 422.256C231.526 419.573 233.203 416.957 234.41 414.409C235.617 411.726 236.221 409.043 236.221 406.36C236.221 400.457 234.544 396.298 231.191 393.884C227.837 391.469 223.678 390.262 218.715 390.262C215.093 390.262 211.672 390.865 208.452 392.073C205.367 393.146 202.483 394.487 199.8 396.097C197.251 397.573 195.037 399.116 193.159 400.725C191.281 402.201 189.872 403.408 188.933 404.347L174.043 383.42C179.945 377.92 186.787 373.426 194.568 369.938C202.483 366.316 210.934 364.505 219.922 364.505C228.105 364.505 235.148 365.444 241.051 367.322C246.953 369.2 251.782 371.883 255.539 375.371C259.429 378.725 262.246 382.883 263.99 387.847C265.868 392.676 266.807 398.177 266.807 404.347ZM317.789 350.017C322.082 350.017 326.174 350.755 330.064 352.23C334.088 353.572 337.576 355.651 340.528 358.468C343.479 361.151 345.827 364.438 347.57 368.328C349.314 372.084 350.186 376.377 350.186 381.207C350.186 386.036 349.314 390.396 347.57 394.286C345.827 398.042 343.479 401.329 340.528 404.146C337.576 406.829 334.088 408.908 330.064 410.384C326.174 411.726 322.082 412.396 317.789 412.396C313.496 412.396 309.338 411.726 305.313 410.384C301.423 408.908 298.002 406.829 295.051 404.146C292.1 401.329 289.752 398.042 288.008 394.286C286.264 390.396 285.392 386.036 285.392 381.207C285.392 376.377 286.264 372.084 288.008 368.328C289.752 364.438 292.1 361.151 295.051 358.468C298.002 355.651 301.423 353.572 305.313 352.23C309.338 350.755 313.496 350.017 317.789 350.017ZM317.789 392.676C320.606 392.676 323.155 391.67 325.436 389.658C327.716 387.512 328.857 384.694 328.857 381.207C328.857 377.719 327.716 374.969 325.436 372.956C323.155 370.81 320.606 369.737 317.789 369.737C314.972 369.737 312.423 370.81 310.143 372.956C307.862 374.969 306.722 377.719 306.722 381.207C306.722 384.694 307.862 387.512 310.143 389.658C312.423 391.67 314.972 392.676 317.789 392.676Z" fill="url(#paint1_linear_17_12)"/>
<defs>
<linearGradient id="paint0_linear_17_12" x1="261.5" y1="0" x2="261.5" y2="613.645" gradientUnits="userSpaceOnUse">
<stop stop-color="#7FBD42"/>
<stop offset="0.975" stop-color="#7FBD42" stop-opacity="0"/>
</linearGradient>
<linearGradient id="paint1_linear_17_12" x1="261.5" y1="317.173" x2="261.5" y2="641" gradientUnits="userSpaceOnUse">
<stop offset="0.216346" stop-color="#E3FFCD"/>
<stop offset="0.759615" stop-color="#FFFFF3"/>
</linearGradient>
</defs>
</svg>