<svg width="523" height="641" viewBox="0 0 523 641" fill="none" xmlns="http://www.w3.org/2000/svg">
<rect width="523" height="613.645" rx="25" fill="url(#paint0_linear_22_17)"/>
<path d="M212.879 510.191C209.257 510.191 205.434 509.923 201.409 509.386C197.385 508.984 193.495 508.38 189.738 507.575C185.982 506.771 182.561 505.899 179.476 504.96C176.39 504.02 173.976 503.149 172.232 502.344L178.067 477.392C181.555 478.867 185.982 480.477 191.348 482.221C196.848 483.831 203.623 484.636 211.672 484.636C220.928 484.636 227.703 482.892 231.995 479.404C236.288 475.916 238.435 471.221 238.435 465.318C238.435 461.696 237.63 458.678 236.02 456.263C234.544 453.714 232.465 451.702 229.782 450.227C227.099 448.617 223.879 447.544 220.123 447.007C216.501 446.336 212.611 446.001 208.452 446.001H196.781V421.854H210.062C213.013 421.854 215.83 421.586 218.513 421.049C221.331 420.512 223.812 419.64 225.959 418.433C228.105 417.092 229.782 415.348 230.989 413.201C232.331 410.921 233.002 408.104 233.002 404.75C233.002 402.201 232.465 399.988 231.392 398.109C230.319 396.231 228.91 394.689 227.166 393.481C225.556 392.274 223.611 391.402 221.331 390.865C219.184 390.195 216.971 389.859 214.69 389.859C208.922 389.859 203.556 390.731 198.592 392.475C193.763 394.219 189.336 396.366 185.311 398.914L174.647 376.981C176.793 375.639 179.275 374.231 182.092 372.755C185.043 371.28 188.263 369.938 191.751 368.731C195.238 367.523 198.928 366.517 202.818 365.712C206.842 364.907 211.068 364.505 215.495 364.505C223.678 364.505 230.721 365.511 236.624 367.523C242.66 369.401 247.624 372.152 251.514 375.774C255.405 379.261 258.289 383.42 260.167 388.249C262.045 392.945 262.984 398.109 262.984 403.744C262.984 409.244 261.441 414.61 258.356 419.842C255.27 424.939 251.112 428.83 245.88 431.513C253.124 434.464 258.691 438.891 262.582 444.793C266.606 450.562 268.618 457.538 268.618 465.721C268.618 472.16 267.545 478.13 265.399 483.63C263.252 488.996 259.899 493.691 255.337 497.715C250.776 501.606 244.941 504.691 237.831 506.972C230.855 509.118 222.538 510.191 212.879 510.191ZM317.789 350.017C322.082 350.017 326.174 350.755 330.064 352.23C334.088 353.572 337.576 355.651 340.528 358.468C343.479 361.151 345.827 364.438 347.57 368.328C349.314 372.084 350.186 376.377 350.186 381.207C350.186 386.036 349.314 390.396 347.57 394.286C345.827 398.042 343.479 401.329 340.528 404.146C337.576 406.829 334.088 408.909 330.064 410.384C326.174 411.726 322.082 412.396 317.789 412.396C313.496 412.396 309.338 411.726 305.313 410.384C301.423 408.909 298.002 406.829 295.051 404.146C292.1 401.329 289.752 398.042 288.008 394.286C286.264 390.396 285.392 386.036 285.392 381.207C285.392 376.377 286.264 372.084 288.008 368.328C289.752 364.438 292.1 361.151 295.051 358.468C298.002 355.651 301.423 353.572 305.313 352.23C309.338 350.755 313.496 350.017 317.789 350.017ZM317.789 392.676C320.606 392.676 323.155 391.67 325.436 389.658C327.716 387.512 328.857 384.695 328.857 381.207C328.857 377.719 327.716 374.969 325.436 372.956C323.155 370.81 320.606 369.737 317.789 369.737C314.972 369.737 312.423 370.81 310.143 372.956C307.862 374.969 306.722 377.719 306.722 381.207C306.722 384.695 307.862 387.512 310.143 389.658C312.423 391.67 314.972 392.676 317.789 392.676Z" fill="url(#paint1_linear_22_17)"/>
<defs>
<linearGradient id="paint0_linear_22_17" x1="261.5" y1="0" x2="261.5" y2="613.645" gradientUnits="userSpaceOnUse">
<stop stop-color="#7FBD42"/>
<stop offset="0.975" stop-color="#7FBD42" stop-opacity="0"/>
</linearGradient>
<linearGradient id="paint1_linear_22_17" x1="261.5" y1="317.173" x2="261.5" y2="641" gradientUnits="userSpaceOnUse">
<stop offset="0.216346" stop-color="#E3FFCD"/>
<stop offset="0.759615" stop-color="#FFFFF3"/>
</linearGradient>
</defs>
</svg>