
<svg width="523" height="641" viewBox="0 0 523 641" fill="none" xmlns="http://www.w3.org/2000/svg">
<rect width="523" height="613.645" rx="25" fill="url(#paint0_linear_22_13)"/>
<path d="M181.086 396.701C184.976 395.091 189.001 393.28 193.159 391.268C197.452 389.121 201.611 386.841 205.635 384.426C209.66 381.877 213.483 379.261 217.105 376.578C220.861 373.761 224.215 370.81 227.166 367.725H248.093V507.173H218.111V406.762C214.086 409.445 209.592 411.927 204.629 414.207C199.665 416.354 194.836 418.232 190.141 419.842L181.086 396.701ZM317.789 350.017C322.082 350.017 326.174 350.755 330.064 352.23C334.088 353.572 337.576 355.651 340.528 358.468C343.479 361.151 345.827 364.438 347.57 368.328C349.314 372.084 350.186 376.377 350.186 381.207C350.186 386.036 349.314 390.396 347.57 394.286C345.827 398.042 343.479 401.329 340.528 404.146C337.576 406.829 334.088 408.909 330.064 410.384C326.174 411.726 322.082 412.396 317.789 412.396C313.496 412.396 309.338 411.726 305.313 410.384C301.423 408.909 298.002 406.829 295.051 404.146C292.1 401.329 289.752 398.042 288.008 394.286C286.264 390.396 285.392 386.036 285.392 381.207C285.392 376.377 286.264 372.084 288.008 368.328C289.752 364.438 292.1 361.151 295.051 358.468C298.002 355.651 301.423 353.572 305.313 352.23C309.338 350.755 313.496 350.017 317.789 350.017ZM317.789 392.676C320.606 392.676 323.155 391.67 325.436 389.658C327.716 387.512 328.857 384.695 328.857 381.207C328.857 377.719 327.716 374.969 325.436 372.956C323.155 370.81 320.606 369.737 317.789 369.737C314.972 369.737 312.423 370.81 310.143 372.956C307.862 374.969 306.722 377.719 306.722 381.207C306.722 384.695 307.862 387.512 310.143 389.658C312.423 391.67 314.972 392.676 317.789 392.676Z" fill="url(#paint1_linear_22_13)"/>
<defs>
<linearGradient id="paint0_linear_22_13" x1="261.5" y1="0" x2="261.5" y2="613.645" gradientUnits="userSpaceOnUse">
<stop stop-color="#7FBD42"/>
<stop offset="0.975" stop-color="#7FBD42" stop-opacity="0"/>
</linearGradient>
<linearGradient id="paint1_linear_22_13" x1="261.5" y1="317.173" x2="261.5" y2="641" gradientUnits="userSpaceOnUse">
<stop offset="0.216346" stop-color="#E3FFCD"/>
<stop offset="0.759615" stop-color="#FFFFF3"/>
</linearGradient>
</defs>
</svg>
