
<svg width="356" height="198" viewBox="0 0 356 198" fill="none" xmlns="http://www.w3.org/2000/svg">
<path d="M92.7988 186.806C86.3123 186.806 81.361 185.002 77.945 181.394C74.5674 177.786 72.8786 172.662 72.8786 166.022C72.8786 162.721 73.3968 159.785 74.4331 157.214C75.4694 154.604 76.8895 152.416 78.6935 150.65C80.4974 148.846 82.6468 147.484 85.1417 146.563C87.6365 145.641 90.3424 145.181 93.2594 145.181C94.9482 145.181 96.4835 145.315 97.8652 145.584C99.247 145.814 100.456 146.102 101.492 146.447C102.529 146.755 103.392 147.081 104.083 147.426C104.774 147.772 105.273 148.04 105.58 148.232L102.989 155.486C101.761 154.834 100.322 154.277 98.6713 153.817C97.0592 153.356 95.2169 153.126 93.1443 153.126C91.7625 153.126 90.4 153.356 89.0566 153.817C87.7516 154.277 86.581 155.026 85.5447 156.062C84.5467 157.06 83.7407 158.365 83.1266 159.977C82.5125 161.589 82.2054 163.547 82.2054 165.85C82.2054 167.692 82.3973 169.419 82.7812 171.031C83.2034 172.605 83.8559 173.967 84.7386 175.119C85.6598 176.27 86.8496 177.191 88.3082 177.882C89.7667 178.535 91.5322 178.861 93.6049 178.861C94.9098 178.861 96.0805 178.784 97.1168 178.631C98.1531 178.477 99.0743 178.304 99.8803 178.113C100.686 177.882 101.396 177.633 102.01 177.364C102.625 177.095 103.181 176.846 103.68 176.616L106.156 183.812C104.889 184.58 103.104 185.271 100.801 185.885C98.4985 186.499 95.831 186.806 92.7988 186.806ZM139.014 170.801C139.014 173.18 138.668 175.368 137.977 177.364C137.286 179.322 136.289 181.01 134.984 182.43C133.679 183.812 132.105 184.887 130.263 185.655C128.459 186.422 126.424 186.806 124.16 186.806C121.934 186.806 119.899 186.422 118.057 185.655C116.253 184.887 114.699 183.812 113.394 182.43C112.089 181.01 111.072 179.322 110.342 177.364C109.613 175.368 109.248 173.18 109.248 170.801C109.248 168.421 109.613 166.253 110.342 164.295C111.11 162.338 112.146 160.668 113.451 159.286C114.795 157.904 116.368 156.83 118.172 156.062C120.015 155.294 122.01 154.911 124.16 154.911C126.348 154.911 128.343 155.294 130.147 156.062C131.99 156.83 133.563 157.904 134.868 159.286C136.173 160.668 137.19 162.338 137.92 164.295C138.649 166.253 139.014 168.421 139.014 170.801ZM130.263 170.801C130.263 168.152 129.725 166.08 128.651 164.583C127.614 163.048 126.117 162.28 124.16 162.28C122.202 162.28 120.686 163.048 119.612 164.583C118.537 166.08 118 168.152 118 170.801C118 173.449 118.537 175.56 119.612 177.134C120.686 178.669 122.202 179.437 124.16 179.437C126.117 179.437 127.614 178.669 128.651 177.134C129.725 175.56 130.263 173.449 130.263 170.801ZM162.297 169.937C162.297 167.174 161.933 165.216 161.203 164.065C160.513 162.913 159.304 162.338 157.576 162.338C157.039 162.338 156.482 162.376 155.907 162.453C155.331 162.491 154.774 162.549 154.237 162.625V186H145.659V156.753C146.388 156.561 147.232 156.369 148.192 156.177C149.19 155.947 150.226 155.755 151.301 155.602C152.414 155.41 153.546 155.275 154.698 155.199C155.849 155.083 156.981 155.026 158.095 155.026C160.282 155.026 162.048 155.314 163.391 155.889C164.773 156.427 165.905 157.079 166.788 157.847C168.016 156.964 169.417 156.273 170.991 155.774C172.603 155.275 174.081 155.026 175.424 155.026C177.842 155.026 179.819 155.371 181.354 156.062C182.928 156.715 184.175 157.655 185.096 158.883C186.017 160.111 186.651 161.57 186.996 163.259C187.341 164.948 187.514 166.828 187.514 168.901V186H178.936V169.937C178.936 167.174 178.571 165.216 177.842 164.065C177.151 162.913 175.942 162.338 174.215 162.338C173.754 162.338 173.102 162.453 172.257 162.683C171.451 162.913 170.78 163.201 170.242 163.547C170.511 164.429 170.684 165.37 170.761 166.368C170.837 167.327 170.876 168.364 170.876 169.477V186H162.297V169.937ZM214.706 171.089C214.706 168.44 214.111 166.329 212.921 164.756C211.732 163.144 209.966 162.338 207.625 162.338C206.857 162.338 206.147 162.376 205.494 162.453C204.842 162.491 204.305 162.549 203.882 162.625V178.113C204.42 178.458 205.111 178.746 205.955 178.976C206.838 179.206 207.721 179.322 208.603 179.322C212.672 179.322 214.706 176.577 214.706 171.089ZM223.457 170.858C223.457 173.2 223.169 175.33 222.594 177.249C222.018 179.168 221.173 180.818 220.06 182.2C218.947 183.582 217.566 184.657 215.915 185.424C214.265 186.192 212.365 186.576 210.215 186.576C209.026 186.576 207.913 186.461 206.876 186.23C205.84 186 204.842 185.674 203.882 185.252V196.651H195.304V156.753C196.072 156.523 196.955 156.312 197.952 156.12C198.95 155.889 199.987 155.698 201.061 155.544C202.174 155.39 203.288 155.275 204.401 155.199C205.552 155.083 206.646 155.026 207.682 155.026C210.177 155.026 212.403 155.41 214.361 156.177C216.318 156.907 217.969 157.962 219.312 159.344C220.655 160.687 221.672 162.338 222.363 164.295C223.093 166.253 223.457 168.44 223.457 170.858ZM241.622 180.012C242.467 180.012 243.273 179.993 244.04 179.955C244.808 179.916 245.422 179.859 245.883 179.782V173.276C245.537 173.2 245.019 173.123 244.328 173.046C243.637 172.969 243.004 172.931 242.428 172.931C241.622 172.931 240.855 172.989 240.125 173.104C239.435 173.18 238.82 173.353 238.283 173.622C237.746 173.891 237.324 174.255 237.016 174.716C236.709 175.176 236.556 175.752 236.556 176.443C236.556 177.786 236.997 178.727 237.88 179.264C238.801 179.763 240.049 180.012 241.622 180.012ZM240.931 154.911C243.465 154.911 245.576 155.199 247.264 155.774C248.953 156.35 250.297 157.175 251.295 158.25C252.331 159.325 253.06 160.63 253.482 162.165C253.905 163.7 254.116 165.408 254.116 167.289V185.136C252.887 185.405 251.179 185.712 248.992 186.058C246.804 186.441 244.156 186.633 241.047 186.633C239.089 186.633 237.304 186.461 235.692 186.115C234.119 185.77 232.756 185.213 231.605 184.446C230.453 183.64 229.57 182.603 228.956 181.337C228.342 180.07 228.035 178.516 228.035 176.673C228.035 174.908 228.381 173.411 229.071 172.183C229.801 170.954 230.76 169.976 231.95 169.246C233.14 168.517 234.502 167.999 236.038 167.692C237.573 167.346 239.166 167.174 240.816 167.174C241.929 167.174 242.908 167.231 243.753 167.346C244.635 167.423 245.345 167.538 245.883 167.692V166.886C245.883 165.427 245.441 164.257 244.559 163.374C243.676 162.491 242.14 162.05 239.953 162.05C238.494 162.05 237.055 162.165 235.635 162.395C234.215 162.587 232.986 162.875 231.95 163.259L230.856 156.35C231.355 156.196 231.969 156.043 232.699 155.889C233.466 155.698 234.291 155.544 235.174 155.429C236.057 155.275 236.978 155.16 237.938 155.083C238.936 154.968 239.934 154.911 240.931 154.911ZM280.123 163.316C279.356 163.124 278.454 162.932 277.417 162.741C276.381 162.51 275.268 162.395 274.078 162.395C273.541 162.395 272.888 162.453 272.121 162.568C271.391 162.645 270.835 162.741 270.451 162.856V186H261.873V157.329C263.408 156.791 265.212 156.292 267.285 155.832C269.396 155.333 271.737 155.083 274.308 155.083C274.769 155.083 275.326 155.122 275.978 155.199C276.63 155.237 277.283 155.314 277.935 155.429C278.588 155.506 279.24 155.621 279.893 155.774C280.545 155.889 281.102 156.043 281.563 156.235L280.123 163.316ZM284.16 171.089C284.16 168.402 284.563 166.061 285.369 164.065C286.213 162.031 287.307 160.342 288.65 158.998C289.994 157.655 291.529 156.638 293.256 155.947C295.022 155.256 296.826 154.911 298.668 154.911C302.967 154.911 306.364 156.235 308.858 158.883C311.353 161.493 312.601 165.351 312.601 170.455C312.601 170.954 312.581 171.511 312.543 172.125C312.505 172.701 312.466 173.219 312.428 173.679H292.968C293.16 175.445 293.985 176.846 295.444 177.882C296.902 178.919 298.86 179.437 301.316 179.437C302.89 179.437 304.425 179.302 305.922 179.034C307.457 178.727 308.705 178.362 309.664 177.94L310.816 184.906C310.355 185.136 309.741 185.367 308.974 185.597C308.206 185.827 307.342 186.019 306.383 186.173C305.462 186.365 304.464 186.518 303.389 186.633C302.314 186.748 301.24 186.806 300.165 186.806C297.44 186.806 295.06 186.403 293.026 185.597C291.03 184.791 289.36 183.697 288.017 182.315C286.712 180.895 285.733 179.226 285.081 177.307C284.467 175.387 284.16 173.315 284.16 171.089ZM304.31 167.807C304.272 167.078 304.137 166.368 303.907 165.677C303.715 164.986 303.389 164.372 302.928 163.834C302.506 163.297 301.95 162.856 301.259 162.51C300.606 162.165 299.781 161.992 298.783 161.992C297.824 161.992 296.998 162.165 296.307 162.51C295.617 162.817 295.041 163.24 294.58 163.777C294.12 164.314 293.755 164.948 293.486 165.677C293.256 166.368 293.083 167.078 292.968 167.807H304.31Z" fill="#04312C"/>
<path d="M92.1768 135.617C84.5694 135.617 78.7625 133.501 74.7562 129.27C70.795 125.038 68.8143 119.029 68.8143 111.241C68.8143 107.37 69.422 103.927 70.6374 100.911C71.8528 97.8496 73.5183 95.2838 75.634 93.2131C77.7497 91.0974 80.2705 89.4994 83.1964 88.419C86.1224 87.3387 89.2959 86.7985 92.717 86.7985C94.6976 86.7985 96.4982 86.9561 98.1187 87.2712C99.7392 87.5413 101.157 87.8789 102.373 88.284C103.588 88.6441 104.601 89.0267 105.411 89.4319C106.221 89.837 106.807 90.1521 107.167 90.3772L104.128 98.8849C102.688 98.1197 101 97.4669 99.064 96.9268C97.1734 96.3866 95.0127 96.1165 92.5819 96.1165C90.9614 96.1165 89.3634 96.3866 87.7879 96.9268C86.2574 97.4669 84.8845 98.3447 83.6691 99.5601C82.4987 100.73 81.5534 102.261 80.8332 104.152C80.1129 106.042 79.7528 108.338 79.7528 111.039C79.7528 113.199 79.9779 115.225 80.428 117.116C80.9232 118.961 81.6884 120.559 82.7238 121.91C83.8041 123.26 85.1996 124.341 86.9101 125.151C88.6207 125.916 90.6913 126.299 93.1221 126.299C94.6526 126.299 96.0255 126.209 97.2409 126.029C98.4563 125.849 99.5367 125.646 100.482 125.421C101.427 125.151 102.26 124.858 102.98 124.543C103.701 124.228 104.353 123.935 104.938 123.665L107.842 132.106C106.356 133.006 104.263 133.816 101.562 134.536C98.8615 135.257 95.733 135.617 92.1768 135.617ZM146.378 116.846C146.378 119.637 145.973 122.202 145.162 124.543C144.352 126.839 143.182 128.82 141.651 130.485C140.121 132.106 138.275 133.366 136.114 134.266C133.999 135.167 131.613 135.617 128.957 135.617C126.346 135.617 123.961 135.167 121.8 134.266C119.684 133.366 117.861 132.106 116.331 130.485C114.8 128.82 113.607 126.839 112.752 124.543C111.897 122.202 111.469 119.637 111.469 116.846C111.469 114.055 111.897 111.511 112.752 109.216C113.652 106.92 114.868 104.962 116.398 103.341C117.974 101.721 119.819 100.46 121.935 99.5601C124.096 98.6598 126.436 98.2097 128.957 98.2097C131.523 98.2097 133.864 98.6598 135.979 99.5601C138.14 100.46 139.986 101.721 141.516 103.341C143.047 104.962 144.24 106.92 145.095 109.216C145.95 111.511 146.378 114.055 146.378 116.846ZM136.114 116.846C136.114 113.74 135.484 111.309 134.224 109.553C133.008 107.753 131.253 106.852 128.957 106.852C126.661 106.852 124.883 107.753 123.623 109.553C122.363 111.309 121.732 113.74 121.732 116.846C121.732 119.952 122.363 122.427 123.623 124.273C124.883 126.074 126.661 126.974 128.957 126.974C131.253 126.974 133.008 126.074 134.224 124.273C135.484 122.427 136.114 119.952 136.114 116.846ZM173.685 115.833C173.685 112.592 173.257 110.296 172.402 108.946C171.592 107.595 170.174 106.92 168.148 106.92C167.518 106.92 166.865 106.965 166.19 107.055C165.515 107.1 164.862 107.168 164.232 107.258V134.671H154.171V100.37C155.026 100.145 156.017 99.9202 157.142 99.6952C158.313 99.4251 159.528 99.2 160.788 99.02C162.094 98.7949 163.422 98.6373 164.772 98.5473C166.123 98.4123 167.45 98.3447 168.756 98.3447C171.322 98.3447 173.392 98.6823 174.968 99.3576C176.588 99.9878 177.916 100.753 178.952 101.653C180.392 100.618 182.035 99.8077 183.881 99.2225C185.771 98.6373 187.504 98.3447 189.08 98.3447C191.916 98.3447 194.234 98.7499 196.035 99.5601C197.88 100.325 199.343 101.428 200.424 102.869C201.504 104.309 202.247 106.02 202.652 108C203.057 109.981 203.259 112.187 203.259 114.617V134.671H193.199V115.833C193.199 112.592 192.771 110.296 191.916 108.946C191.106 107.595 189.688 106.92 187.662 106.92C187.122 106.92 186.357 107.055 185.366 107.325C184.421 107.595 183.633 107.933 183.003 108.338C183.318 109.373 183.521 110.476 183.611 111.646C183.701 112.772 183.746 113.987 183.746 115.293V134.671H173.685V115.833ZM210.707 117.183C210.707 114.032 211.18 111.286 212.125 108.946C213.116 106.56 214.399 104.579 215.974 103.004C217.55 101.428 219.35 100.235 221.376 99.4251C223.446 98.6148 225.562 98.2097 227.723 98.2097C232.764 98.2097 236.748 99.7627 239.674 102.869C242.6 105.93 244.063 110.454 244.063 116.441C244.063 117.026 244.041 117.678 243.996 118.399C243.951 119.074 243.906 119.682 243.861 120.222H221.038C221.263 122.292 222.231 123.935 223.942 125.151C225.652 126.366 227.948 126.974 230.829 126.974C232.674 126.974 234.475 126.816 236.231 126.501C238.031 126.141 239.494 125.714 240.619 125.218L241.97 133.388C241.43 133.659 240.71 133.929 239.809 134.199C238.909 134.469 237.896 134.694 236.771 134.874C235.69 135.099 234.52 135.279 233.26 135.414C231.999 135.549 230.739 135.617 229.478 135.617C226.282 135.617 223.491 135.144 221.106 134.199C218.765 133.253 216.807 131.971 215.231 130.35C213.701 128.684 212.553 126.726 211.788 124.476C211.068 122.225 210.707 119.794 210.707 117.183ZM234.34 113.335C234.295 112.479 234.137 111.646 233.867 110.836C233.642 110.026 233.26 109.306 232.719 108.676C232.224 108.045 231.572 107.528 230.761 107.123C229.996 106.717 229.028 106.515 227.858 106.515C226.733 106.515 225.765 106.717 224.954 107.123C224.144 107.483 223.469 107.978 222.929 108.608C222.389 109.238 221.961 109.981 221.646 110.836C221.376 111.646 221.173 112.479 221.038 113.335H234.34ZM251.827 100.37C253.538 99.8752 255.743 99.4251 258.444 99.02C261.145 98.5698 263.981 98.3447 266.952 98.3447C269.968 98.3447 272.466 98.7499 274.447 99.5601C276.472 100.325 278.07 101.428 279.241 102.869C280.411 104.309 281.244 106.02 281.739 108C282.234 109.981 282.482 112.187 282.482 114.617V134.671H272.421V115.833C272.421 112.592 271.993 110.296 271.138 108.946C270.283 107.595 268.685 106.92 266.344 106.92C265.624 106.92 264.859 106.965 264.048 107.055C263.238 107.1 262.518 107.168 261.888 107.258V134.671H251.827V100.37ZM291.251 90.3097L301.311 88.6891V99.155H313.398V107.528H301.311V120.019C301.311 122.135 301.672 123.823 302.392 125.083C303.157 126.344 304.665 126.974 306.916 126.974C307.996 126.974 309.099 126.884 310.224 126.704C311.395 126.479 312.453 126.186 313.398 125.826L314.816 133.659C313.6 134.154 312.25 134.581 310.764 134.941C309.279 135.302 307.456 135.482 305.295 135.482C302.549 135.482 300.276 135.122 298.476 134.401C296.675 133.636 295.234 132.601 294.154 131.295C293.074 129.945 292.309 128.324 291.858 126.434C291.453 124.543 291.251 122.45 291.251 120.154V90.3097ZM318.584 117.183C318.584 114.032 319.056 111.286 320.002 108.946C320.992 106.56 322.275 104.579 323.85 103.004C325.426 101.428 327.227 100.235 329.252 99.4251C331.323 98.6148 333.439 98.2097 335.599 98.2097C340.641 98.2097 344.625 99.7627 347.551 102.869C350.477 105.93 351.939 110.454 351.939 116.441C351.939 117.026 351.917 117.678 351.872 118.399C351.827 119.074 351.782 119.682 351.737 120.222H328.915C329.14 122.292 330.107 123.935 331.818 125.151C333.529 126.366 335.824 126.974 338.705 126.974C340.551 126.974 342.351 126.816 344.107 126.501C345.908 126.141 347.371 125.714 348.496 125.218L349.846 133.388C349.306 133.659 348.586 133.929 347.686 134.199C346.785 134.469 345.773 134.694 344.647 134.874C343.567 135.099 342.396 135.279 341.136 135.414C339.876 135.549 338.615 135.617 337.355 135.617C334.159 135.617 331.368 135.144 328.982 134.199C326.641 133.253 324.683 131.971 323.108 130.35C321.577 128.684 320.429 126.726 319.664 124.476C318.944 122.225 318.584 119.794 318.584 117.183ZM342.216 113.335C342.171 112.479 342.014 111.646 341.744 110.836C341.519 110.026 341.136 109.306 340.596 108.676C340.101 108.045 339.448 107.528 338.638 107.123C337.872 106.717 336.905 106.515 335.734 106.515C334.609 106.515 333.641 106.717 332.831 107.123C332.021 107.483 331.345 107.978 330.805 108.608C330.265 109.238 329.837 109.981 329.522 110.836C329.252 111.646 329.05 112.479 328.915 113.335H342.216Z" fill="#04312C"/>
<path d="M94.6125 77.1176C85.6184 77.1176 78.753 74.6163 74.0165 69.6136C69.3331 64.611 66.9915 57.5061 66.9915 48.2991C66.9915 43.7222 67.7099 39.6509 69.1469 36.0852C70.5838 32.4663 72.5529 29.4327 75.0543 26.9846C77.5556 24.4833 80.5359 22.594 83.9952 21.3167C87.4545 20.0394 91.2065 19.4008 95.2512 19.4008C97.5928 19.4008 99.7216 19.5871 101.638 19.9596C103.553 20.2789 105.23 20.6781 106.667 21.1571C108.104 21.5828 109.301 22.0352 110.259 22.5142C111.217 22.9931 111.909 23.3657 112.335 23.6318L108.742 33.6903C107.039 32.7856 105.044 32.0139 102.755 31.3753C100.52 30.7366 97.9654 30.4173 95.0915 30.4173C93.1756 30.4173 91.2863 30.7366 89.4236 31.3753C87.6141 32.0139 85.9909 33.0517 84.554 34.4886C83.1703 35.8723 82.0527 37.6818 81.2011 39.917C80.3496 42.1522 79.9239 44.8665 79.9239 48.0596C79.9239 50.6142 80.19 53.0091 80.7222 55.2443C81.3076 57.4263 82.2123 59.3156 83.4364 60.9122C84.7137 62.5088 86.3635 63.7861 88.3858 64.744C90.4082 65.6488 92.8563 66.1011 95.7301 66.1011C97.5396 66.1011 99.1628 65.9947 100.6 65.7818C102.037 65.5689 103.314 65.3294 104.432 65.0633C105.549 64.744 106.534 64.3981 107.385 64.0256C108.237 63.653 109.008 63.3071 109.7 62.9878L113.133 72.9665C111.377 74.0309 108.902 74.9888 105.709 75.8403C102.516 76.6919 98.8169 77.1176 94.6125 77.1176ZM158.693 54.925C158.693 58.2246 158.214 61.2581 157.256 64.0256C156.298 66.7398 154.915 69.0814 153.105 71.0506C151.296 72.9665 149.114 74.4566 146.559 75.521C144.058 76.5854 141.237 77.1176 138.097 77.1176C135.01 77.1176 132.19 76.5854 129.635 75.521C127.134 74.4566 124.979 72.9665 123.169 71.0506C121.36 69.0814 119.949 66.7398 118.938 64.0256C117.927 61.2581 117.421 58.2246 117.421 54.925C117.421 51.6254 117.927 48.6184 118.938 45.9042C120.002 43.19 121.439 40.875 123.249 38.9591C125.112 37.0432 127.294 35.553 129.795 34.4886C132.349 33.4242 135.117 32.892 138.097 32.892C141.131 32.892 143.898 33.4242 146.399 34.4886C148.954 35.553 151.136 37.0432 152.946 38.9591C154.755 40.875 156.165 43.19 157.176 45.9042C158.188 48.6184 158.693 51.6254 158.693 54.925ZM146.559 54.925C146.559 51.2528 145.814 48.379 144.324 46.3034C142.887 44.1746 140.811 43.1102 138.097 43.1102C135.383 43.1102 133.281 44.1746 131.791 46.3034C130.301 48.379 129.555 51.2528 129.555 54.925C129.555 58.5971 130.301 61.5242 131.791 63.7062C133.281 65.835 135.383 66.8994 138.097 66.8994C140.811 66.8994 142.887 65.835 144.324 63.7062C145.814 61.5242 146.559 58.5971 146.559 54.925ZM167.907 35.4466C169.93 34.8611 172.537 34.3289 175.731 33.85C178.924 33.3178 182.277 33.0517 185.789 33.0517C189.355 33.0517 192.309 33.5307 194.65 34.4886C197.045 35.3933 198.934 36.6972 200.318 38.4003C201.702 40.1033 202.686 42.1256 203.272 44.4673C203.857 46.809 204.15 49.4167 204.15 52.2906V76H192.255V53.7275C192.255 49.8957 191.75 47.1815 190.739 45.5849C189.727 43.9883 187.838 43.19 185.071 43.19C184.219 43.19 183.314 43.2433 182.356 43.3497C181.399 43.4029 180.547 43.4827 179.802 43.5892V76H167.907V35.4466ZM233.117 14.0522C235.353 14.0522 237.189 14.2385 238.626 14.611C240.116 14.9836 241.367 15.3827 242.378 15.8085L240.302 25.1485C239.451 24.776 238.493 24.5099 237.428 24.3502C236.417 24.1906 235.379 24.1108 234.315 24.1108C232.878 24.1108 231.654 24.3236 230.643 24.7494C229.685 25.1219 228.913 25.6541 228.328 26.346C227.796 27.0378 227.396 27.8628 227.13 28.8207C226.917 29.7787 226.811 30.8164 226.811 31.9341V34.0096H241.5V43.9085H226.811V76H214.916V31.7744C214.916 26.346 216.433 22.0352 219.467 18.842C222.553 15.6488 227.104 14.0522 233.117 14.0522ZM260.26 76H248.365V34.0096H260.26V76ZM261.377 21.8755C261.377 24.0575 260.659 25.7872 259.222 27.0645C257.838 28.2885 256.188 28.9005 254.272 28.9005C252.356 28.9005 250.68 28.2885 249.243 27.0645C247.859 25.7872 247.168 24.0575 247.168 21.8755C247.168 19.6935 247.859 17.9905 249.243 16.7664C250.68 15.4892 252.356 14.8505 254.272 14.8505C256.188 14.8505 257.838 15.4892 259.222 16.7664C260.659 17.9905 261.377 19.6935 261.377 21.8755ZM296.742 44.5471C295.678 44.281 294.427 44.0149 292.99 43.7488C291.553 43.4295 290.01 43.2699 288.36 43.2699C287.615 43.2699 286.71 43.3497 285.646 43.5094C284.635 43.6158 283.863 43.7488 283.331 43.9085V76H271.436V36.2449C273.565 35.4998 276.066 34.8079 278.94 34.1693C281.867 33.4774 285.114 33.1315 288.68 33.1315C289.318 33.1315 290.09 33.1847 290.995 33.2912C291.899 33.3444 292.804 33.4508 293.709 33.6105C294.614 33.7169 295.518 33.8766 296.423 34.0895C297.328 34.2491 298.099 34.462 298.738 34.7281L296.742 44.5471ZM320.381 67.6977C321.551 67.6977 322.669 67.6711 323.733 67.6179C324.798 67.5647 325.649 67.4848 326.288 67.3784V58.3577C325.809 58.2512 325.091 58.1448 324.133 58.0383C323.175 57.9319 322.297 57.8787 321.498 57.8787C320.381 57.8787 319.316 57.9585 318.305 58.1182C317.347 58.2246 316.496 58.4641 315.75 58.8366C315.005 59.2092 314.42 59.7148 313.994 60.3534C313.568 60.992 313.356 61.7903 313.356 62.7483C313.356 64.611 313.968 65.9149 315.192 66.6599C316.469 67.3518 318.199 67.6977 320.381 67.6977ZM319.423 32.892C322.935 32.892 325.862 33.2912 328.204 34.0895C330.546 34.8878 332.408 36.032 333.792 37.5221C335.229 39.0123 336.24 40.8218 336.826 42.9505C337.411 45.0793 337.704 47.4476 337.704 50.0554V74.8026C336.001 75.1751 333.632 75.6009 330.599 76.0798C327.565 76.612 323.893 76.8781 319.582 76.8781C316.868 76.8781 314.393 76.6386 312.158 76.1597C309.976 75.6807 308.087 74.909 306.49 73.8446C304.894 72.727 303.67 71.2901 302.818 69.5338C301.967 67.7776 301.541 65.6222 301.541 63.0676C301.541 60.6195 302.02 58.5439 302.978 56.8409C303.989 55.1379 305.319 53.7808 306.969 52.7696C308.619 51.7584 310.508 51.0399 312.637 50.6142C314.766 50.1352 316.975 49.8957 319.263 49.8957C320.806 49.8957 322.163 49.9756 323.334 50.1352C324.558 50.2416 325.543 50.4013 326.288 50.6142V49.4966C326.288 47.4742 325.676 45.851 324.452 44.627C323.228 43.4029 321.099 42.7909 318.066 42.7909C316.043 42.7909 314.047 42.9505 312.078 43.2699C310.109 43.536 308.406 43.9351 306.969 44.4673L305.452 34.8878C306.144 34.6749 306.996 34.462 308.007 34.2491C309.071 33.983 310.216 33.7701 311.44 33.6105C312.664 33.3976 313.941 33.2379 315.272 33.1315C316.655 32.9718 318.039 32.892 319.423 32.892Z" fill="#04312C"/>
<path d="M13.0044 175.38C12.9886 169.968 13.9477 165.82 15.8819 162.935C17.7814 160.05 20.7604 158.602 24.819 158.59C27.3513 158.583 29.417 159.167 31.0161 160.341C32.5805 161.481 33.8168 163.143 34.7251 165.326C35.6249 164.595 36.6633 163.828 37.8404 163.027C38.9828 162.226 40.1946 161.442 41.4759 160.675C42.7224 159.873 44.0383 159.106 45.4237 158.374C46.7745 157.642 48.108 156.961 49.4244 156.333L49.451 165.439C48.2735 166.101 47.0787 166.781 45.8666 167.479C44.6544 168.141 43.477 168.838 42.3344 169.57C41.1917 170.267 40.1184 170.964 39.1144 171.661C38.0758 172.358 37.1412 173.054 36.3107 173.751L36.3224 177.757L49.4869 177.719L49.5106 185.836L13.9719 185.94C13.6198 184.172 13.3717 182.351 13.2274 180.478C13.0831 178.571 13.0087 176.871 13.0044 175.38ZM19.9234 174.891C19.9252 175.481 19.9441 176.018 19.9802 176.504C20.0162 176.955 20.0522 177.388 20.0881 177.805L29.8703 177.776L29.8636 175.486C29.8547 172.434 29.4667 170.25 28.6997 168.934C27.9327 167.618 26.63 166.962 24.7915 166.968C23.0223 166.973 21.7755 167.653 21.051 169.008C20.2917 170.328 19.9158 172.289 19.9234 174.891ZM35.9417 154.312C33.5135 154.319 31.3964 153.961 29.5905 153.238C27.7497 152.48 26.2205 151.496 25.0029 150.285C23.7852 149.075 22.8619 147.69 22.2329 146.13C21.6039 144.537 21.2869 142.907 21.282 141.242C21.2707 137.357 22.4585 134.283 24.8454 132.022C27.1977 129.76 30.6806 128.622 35.2942 128.609C35.7452 128.608 36.2482 128.624 36.8033 128.657C37.3238 128.69 37.7922 128.723 38.2085 128.757L38.2599 146.344C39.8551 146.166 41.1191 145.416 42.0518 144.095C42.9846 142.774 43.4477 141.004 43.4412 138.784C43.4371 137.362 43.3116 135.974 43.0648 134.622C42.7833 133.235 42.4504 132.109 42.0663 131.243L48.3593 130.184C48.5686 130.599 48.7784 131.154 48.9886 131.847C49.1987 132.54 49.3744 133.32 49.5157 134.187C49.6916 135.019 49.833 135.921 49.9399 136.892C50.0468 137.863 50.1017 138.834 50.1045 139.805C50.1117 142.268 49.7538 144.42 49.0307 146.26C48.3075 148.066 47.3233 149.578 46.078 150.796C44.798 151.979 43.2916 152.868 41.5589 153.463C39.8261 154.023 37.9537 154.306 35.9417 154.312ZM32.9226 136.109C32.2636 136.145 31.6222 136.269 30.9984 136.479C30.3745 136.654 29.8204 136.95 29.336 137.368C28.8514 137.751 28.454 138.255 28.1436 138.881C27.8331 139.471 27.6792 140.217 27.6818 141.119C27.6844 141.987 27.8426 142.732 28.1567 143.355C28.436 143.979 28.8191 144.498 29.306 144.913C29.7928 145.328 30.3662 145.656 31.026 145.897C31.651 146.103 32.2932 146.257 32.9526 146.359L32.9226 136.109ZM49.304 115.144C45.8403 116.923 41.7869 118.739 37.144 120.591C32.501 122.409 27.4414 124.14 21.9654 125.787L21.9413 117.566C23.2932 117.215 24.7663 116.812 26.3607 116.356C27.9202 115.866 29.5145 115.375 31.1435 114.885C32.7376 114.36 34.2972 113.852 35.822 113.362C37.3468 112.838 38.7329 112.331 39.9803 111.841C38.7302 111.394 37.3412 110.912 35.8134 110.396C34.2855 109.881 32.7231 109.382 31.126 108.901C29.4941 108.386 27.897 107.905 26.3347 107.458C24.7375 106.977 23.2621 106.565 21.9082 106.222L21.8848 98.2093C27.3704 99.8236 32.44 101.543 37.0937 103.368C41.7473 105.158 45.8111 106.933 49.2851 108.692L49.304 115.144ZM49.2195 86.2238L49.2421 93.9768L21.8726 94.0568L21.85 86.3038L49.2195 86.2238ZM13.9388 85.5984C15.361 85.5943 16.4898 86.0593 17.325 86.9935C18.1255 87.893 18.5276 88.9672 18.5312 90.216C18.5349 91.4648 18.1392 92.5587 17.3441 93.4976C16.5142 94.402 15.3881 94.8562 13.9658 94.8604C12.5436 94.8645 11.4322 94.4168 10.6318 93.5172C9.79649 92.5831 9.37704 91.4916 9.37339 90.2428C9.36974 88.994 9.78286 87.9174 10.6128 87.0131C11.4079 86.0741 12.5165 85.6026 13.9388 85.5984ZM35.7253 80.2761C33.2971 80.2832 31.18 79.9252 29.3741 79.202C27.5334 78.4442 26.0042 77.46 24.7865 76.2495C23.5688 75.0389 22.6455 73.654 22.0166 72.0949C21.3875 70.501 21.0705 68.8715 21.0657 67.2065C21.0543 63.3213 22.2421 60.2479 24.6291 57.9861C26.9813 55.7244 30.4642 54.5868 35.0779 54.5734C35.5288 54.572 36.0319 54.5879 36.587 54.621C37.1074 54.6542 37.5758 54.6875 37.9922 54.7209L38.0436 72.3082C39.6388 72.1301 40.9027 71.3806 41.8355 70.0597C42.7682 68.7387 43.2313 66.9682 43.2249 64.7482C43.2207 63.3259 43.0952 61.9387 42.8485 60.5866C42.5669 59.1998 42.2341 58.0734 41.8499 57.2073L48.1429 56.1482C48.3523 56.5639 48.562 57.1183 48.7722 57.8115C48.9824 58.5046 49.1581 59.2846 49.2994 60.1514C49.4752 60.9835 49.6166 61.885 49.7235 62.856C49.8304 63.8269 49.8853 64.7981 49.8882 65.7694C49.8954 68.2323 49.5374 70.384 48.8143 72.2247C48.0911 74.0306 47.1069 75.5425 45.8616 76.7602C44.5816 77.9434 43.0752 78.8324 41.3425 79.4272C39.6097 79.9873 37.7373 80.2702 35.7253 80.2761ZM32.7062 62.0731C32.0472 62.1098 31.4059 62.233 30.7821 62.443C30.1582 62.6183 29.604 62.9148 29.1196 63.3324C28.6351 63.7154 28.2376 64.2196 27.9272 64.8449C27.6168 65.4355 27.4628 66.1818 27.4655 67.0837C27.468 67.9509 27.6263 68.6963 27.9403 69.3198C28.2196 69.9433 28.6027 70.4626 29.0896 70.8774C29.5765 71.2923 30.1498 71.6201 30.8096 71.861C31.4346 72.0673 32.0768 72.2216 32.7362 72.3237L32.7062 62.0731ZM33.3466 31.9446C35.985 32.6306 38.6062 33.3688 41.2102 34.159C43.8141 34.9146 46.4355 35.7221 49.0744 36.5816L49.092 42.6175C47.6369 43.2462 45.9044 43.9277 43.8946 44.662C41.8848 45.3964 39.7016 46.1659 37.3451 46.9706C34.9538 47.7408 32.4412 48.546 29.8073 49.3862C27.1386 50.1919 24.4525 50.9802 21.749 51.7513L21.7251 43.5821C22.9731 43.3009 24.3424 43.002 25.8332 42.6855C27.2891 42.3343 28.797 41.983 30.357 41.6316C31.9169 41.2454 33.4941 40.8593 35.0887 40.473C36.6485 40.0522 38.1562 39.6315 39.6119 39.211C38.0843 38.7645 36.522 38.3354 34.9251 37.9238C33.3281 37.4775 31.7659 37.0658 30.2385 36.6887C28.6763 36.277 27.1835 35.8998 25.7603 35.5571C24.3022 35.1798 22.9484 34.8542 21.6988 34.5803L21.6824 28.9607C22.9304 28.6795 24.2823 28.3634 25.7382 28.0123C27.1595 27.6612 28.65 27.2926 30.2099 26.9065C31.7351 26.5204 33.2949 26.117 34.8894 25.696C36.4839 25.2751 38.0436 24.8369 39.5686 24.3815C38.1104 23.9695 36.6003 23.5576 35.038 23.1459C33.4411 22.7343 31.8617 22.3574 30.2997 22.015C28.7376 21.638 27.2276 21.2956 25.7697 20.9876C24.2771 20.6451 22.906 20.3369 21.6564 20.063L21.6328 11.9979C24.3408 12.7531 27.0315 13.5431 29.705 14.3678C32.3436 15.158 34.8609 15.9485 37.2568 16.7393C39.6178 17.4956 41.8055 18.2523 43.8197 19.0096C45.8337 19.7322 47.5702 20.4036 49.0289 21.0237L49.0466 27.0596C46.4127 27.9345 43.7962 28.792 41.197 29.6322C38.5978 30.4723 35.981 31.2431 33.3466 31.9446Z" fill="#C3F98F"/>
</svg>