
<svg width="410" height="227" viewBox="0 0 410 227" fill="none" xmlns="http://www.w3.org/2000/svg">
<circle cx="273.5" cy="10.5" r="10.5" fill="white"/>
<circle cx="273.5" cy="52.5" r="10.5" fill="white"/>
<circle cx="273.5" cy="94.5" r="10.5" fill="white"/>
<circle cx="357.5" cy="10.5" r="10.5" fill="white"/>
<circle cx="357.5" cy="52.5" r="10.5" fill="white"/>
<circle cx="357.5" cy="94.5" r="10.5" fill="white"/>
<circle cx="315.5" cy="10.5" r="10.5" fill="white"/>
<circle cx="315.5" cy="52.5" r="10.5" fill="white"/>
<circle cx="315.5" cy="94.5" r="10.5" fill="white"/>
<circle cx="399.5" cy="10.5" r="10.5" fill="white"/>
<circle cx="399.5" cy="52.5" r="10.5" fill="white"/>
<circle cx="399.5" cy="94.5" r="10.5" fill="white"/>
<path d="M92.7988 215.806C86.3123 215.806 81.361 214.002 77.945 210.394C74.5674 206.786 72.8786 201.662 72.8786 195.022C72.8786 191.721 73.3968 188.785 74.4331 186.214C75.4694 183.604 76.8895 181.416 78.6935 179.65C80.4974 177.846 82.6468 176.484 85.1417 175.563C87.6365 174.641 90.3424 174.181 93.2594 174.181C94.9482 174.181 96.4835 174.315 97.8652 174.584C99.247 174.814 100.456 175.102 101.492 175.447C102.529 175.755 103.392 176.081 104.083 176.426C104.774 176.772 105.273 177.04 105.58 177.232L102.989 184.486C101.761 183.834 100.322 183.277 98.6713 182.817C97.0592 182.356 95.2169 182.126 93.1443 182.126C91.7625 182.126 90.4 182.356 89.0566 182.817C87.7516 183.277 86.581 184.026 85.5447 185.062C84.5467 186.06 83.7407 187.365 83.1266 188.977C82.5125 190.589 82.2054 192.547 82.2054 194.85C82.2054 196.692 82.3973 198.419 82.7812 200.031C83.2034 201.605 83.8559 202.967 84.7386 204.119C85.6598 205.27 86.8496 206.191 88.3082 206.882C89.7667 207.535 91.5322 207.861 93.6049 207.861C94.9098 207.861 96.0805 207.784 97.1168 207.631C98.1531 207.477 99.0743 207.304 99.8803 207.113C100.686 206.882 101.396 206.633 102.01 206.364C102.625 206.095 103.181 205.846 103.68 205.616L106.156 212.812C104.889 213.58 103.104 214.271 100.801 214.885C98.4985 215.499 95.831 215.806 92.7988 215.806ZM139.014 199.801C139.014 202.18 138.668 204.368 137.977 206.364C137.286 208.322 136.289 210.01 134.984 211.43C133.679 212.812 132.105 213.887 130.263 214.655C128.459 215.422 126.424 215.806 124.16 215.806C121.934 215.806 119.899 215.422 118.057 214.655C116.253 213.887 114.699 212.812 113.394 211.43C112.089 210.01 111.072 208.322 110.342 206.364C109.613 204.368 109.248 202.18 109.248 199.801C109.248 197.421 109.613 195.253 110.342 193.295C111.11 191.338 112.146 189.668 113.451 188.286C114.795 186.904 116.368 185.83 118.172 185.062C120.015 184.294 122.01 183.911 124.16 183.911C126.348 183.911 128.343 184.294 130.147 185.062C131.99 185.83 133.563 186.904 134.868 188.286C136.173 189.668 137.19 191.338 137.92 193.295C138.649 195.253 139.014 197.421 139.014 199.801ZM130.263 199.801C130.263 197.152 129.725 195.08 128.651 193.583C127.614 192.048 126.117 191.28 124.16 191.28C122.202 191.28 120.686 192.048 119.612 193.583C118.537 195.08 118 197.152 118 199.801C118 202.449 118.537 204.56 119.612 206.134C120.686 207.669 122.202 208.437 124.16 208.437C126.117 208.437 127.614 207.669 128.651 206.134C129.725 204.56 130.263 202.449 130.263 199.801ZM162.297 198.937C162.297 196.174 161.933 194.216 161.203 193.065C160.513 191.913 159.304 191.338 157.576 191.338C157.039 191.338 156.482 191.376 155.907 191.453C155.331 191.491 154.774 191.549 154.237 191.625V215H145.659V185.753C146.388 185.561 147.232 185.369 148.192 185.177C149.19 184.947 150.226 184.755 151.301 184.602C152.414 184.41 153.546 184.275 154.698 184.199C155.849 184.083 156.981 184.026 158.095 184.026C160.282 184.026 162.048 184.314 163.391 184.889C164.773 185.427 165.905 186.079 166.788 186.847C168.016 185.964 169.417 185.273 170.991 184.774C172.603 184.275 174.081 184.026 175.424 184.026C177.842 184.026 179.819 184.371 181.354 185.062C182.928 185.715 184.175 186.655 185.096 187.883C186.017 189.111 186.651 190.57 186.996 192.259C187.341 193.948 187.514 195.828 187.514 197.901V215H178.936V198.937C178.936 196.174 178.571 194.216 177.842 193.065C177.151 191.913 175.942 191.338 174.215 191.338C173.754 191.338 173.102 191.453 172.257 191.683C171.451 191.913 170.78 192.201 170.242 192.547C170.511 193.429 170.684 194.37 170.761 195.368C170.837 196.327 170.876 197.364 170.876 198.477V215H162.297V198.937ZM214.706 200.089C214.706 197.44 214.111 195.329 212.921 193.756C211.732 192.144 209.966 191.338 207.625 191.338C206.857 191.338 206.147 191.376 205.494 191.453C204.842 191.491 204.305 191.549 203.882 191.625V207.113C204.42 207.458 205.111 207.746 205.955 207.976C206.838 208.206 207.721 208.322 208.603 208.322C212.672 208.322 214.706 205.577 214.706 200.089ZM223.457 199.858C223.457 202.2 223.169 204.33 222.594 206.249C222.018 208.168 221.173 209.818 220.06 211.2C218.947 212.582 217.566 213.657 215.915 214.424C214.265 215.192 212.365 215.576 210.215 215.576C209.026 215.576 207.913 215.461 206.876 215.23C205.84 215 204.842 214.674 203.882 214.252V225.651H195.304V185.753C196.072 185.523 196.955 185.312 197.952 185.12C198.95 184.889 199.987 184.698 201.061 184.544C202.174 184.39 203.288 184.275 204.401 184.199C205.552 184.083 206.646 184.026 207.682 184.026C210.177 184.026 212.403 184.41 214.361 185.177C216.318 185.907 217.969 186.962 219.312 188.344C220.655 189.687 221.672 191.338 222.363 193.295C223.093 195.253 223.457 197.44 223.457 199.858ZM241.622 209.012C242.467 209.012 243.273 208.993 244.04 208.955C244.808 208.916 245.422 208.859 245.883 208.782V202.276C245.537 202.2 245.019 202.123 244.328 202.046C243.637 201.969 243.004 201.931 242.428 201.931C241.622 201.931 240.855 201.989 240.125 202.104C239.435 202.18 238.82 202.353 238.283 202.622C237.746 202.891 237.324 203.255 237.016 203.716C236.709 204.176 236.556 204.752 236.556 205.443C236.556 206.786 236.997 207.727 237.88 208.264C238.801 208.763 240.049 209.012 241.622 209.012ZM240.931 183.911C243.465 183.911 245.576 184.199 247.264 184.774C248.953 185.35 250.297 186.175 251.295 187.25C252.331 188.325 253.06 189.63 253.482 191.165C253.905 192.7 254.116 194.408 254.116 196.289V214.136C252.887 214.405 251.179 214.712 248.992 215.058C246.804 215.441 244.156 215.633 241.047 215.633C239.089 215.633 237.304 215.461 235.692 215.115C234.119 214.77 232.756 214.213 231.605 213.446C230.453 212.64 229.57 211.603 228.956 210.337C228.342 209.07 228.035 207.516 228.035 205.673C228.035 203.908 228.381 202.411 229.071 201.183C229.801 199.954 230.76 198.976 231.95 198.246C233.14 197.517 234.502 196.999 236.038 196.692C237.573 196.346 239.166 196.174 240.816 196.174C241.929 196.174 242.908 196.231 243.753 196.346C244.635 196.423 245.345 196.538 245.883 196.692V195.886C245.883 194.427 245.441 193.257 244.559 192.374C243.676 191.491 242.14 191.05 239.953 191.05C238.494 191.05 237.055 191.165 235.635 191.395C234.215 191.587 232.986 191.875 231.95 192.259L230.856 185.35C231.355 185.196 231.969 185.043 232.699 184.889C233.466 184.698 234.291 184.544 235.174 184.429C236.057 184.275 236.978 184.16 237.938 184.083C238.936 183.968 239.934 183.911 240.931 183.911ZM280.123 192.316C279.356 192.124 278.454 191.932 277.417 191.741C276.381 191.51 275.268 191.395 274.078 191.395C273.541 191.395 272.888 191.453 272.121 191.568C271.391 191.645 270.835 191.741 270.451 191.856V215H261.873V186.329C263.408 185.791 265.212 185.292 267.285 184.832C269.396 184.333 271.737 184.083 274.308 184.083C274.769 184.083 275.326 184.122 275.978 184.199C276.63 184.237 277.283 184.314 277.935 184.429C278.588 184.506 279.24 184.621 279.893 184.774C280.545 184.889 281.102 185.043 281.563 185.235L280.123 192.316ZM284.16 200.089C284.16 197.402 284.563 195.061 285.369 193.065C286.213 191.031 287.307 189.342 288.65 187.998C289.994 186.655 291.529 185.638 293.256 184.947C295.022 184.256 296.826 183.911 298.668 183.911C302.967 183.911 306.364 185.235 308.858 187.883C311.353 190.493 312.601 194.351 312.601 199.455C312.601 199.954 312.581 200.511 312.543 201.125C312.505 201.701 312.466 202.219 312.428 202.679H292.968C293.16 204.445 293.985 205.846 295.444 206.882C296.902 207.919 298.86 208.437 301.316 208.437C302.89 208.437 304.425 208.302 305.922 208.034C307.457 207.727 308.705 207.362 309.664 206.94L310.816 213.906C310.355 214.136 309.741 214.367 308.974 214.597C308.206 214.827 307.342 215.019 306.383 215.173C305.462 215.365 304.464 215.518 303.389 215.633C302.314 215.748 301.24 215.806 300.165 215.806C297.44 215.806 295.06 215.403 293.026 214.597C291.03 213.791 289.36 212.697 288.017 211.315C286.712 209.895 285.733 208.226 285.081 206.307C284.467 204.387 284.16 202.315 284.16 200.089ZM304.31 196.807C304.272 196.078 304.137 195.368 303.907 194.677C303.715 193.986 303.389 193.372 302.928 192.834C302.506 192.297 301.95 191.856 301.259 191.51C300.606 191.165 299.781 190.992 298.783 190.992C297.824 190.992 296.998 191.165 296.307 191.51C295.617 191.817 295.041 192.24 294.58 192.777C294.12 193.314 293.755 193.948 293.486 194.677C293.256 195.368 293.083 196.078 292.968 196.807H304.31Z" fill="#04312C"/>
<path d="M92.1771 164.617C84.5696 164.617 78.7628 162.501 74.7565 158.27C70.7952 154.038 68.8146 148.029 68.8146 140.241C68.8146 136.37 69.4223 132.927 70.6376 129.911C71.853 126.85 73.5186 124.284 75.6342 122.213C77.7499 120.097 80.2707 118.499 83.1967 117.419C86.1226 116.339 89.2961 115.799 92.7172 115.799C94.6979 115.799 96.4984 115.956 98.119 116.271C99.7395 116.541 101.157 116.879 102.373 117.284C103.588 117.644 104.601 118.027 105.411 118.432C106.222 118.837 106.807 119.152 107.167 119.377L104.128 127.885C102.688 127.12 101 126.467 99.0643 125.927C97.1737 125.387 95.013 125.117 92.5822 125.117C90.9617 125.117 89.3637 125.387 87.7881 125.927C86.2577 126.467 84.8847 127.345 83.6693 128.56C82.499 129.73 81.5536 131.261 80.8334 133.152C80.1132 135.042 79.7531 137.338 79.7531 140.039C79.7531 142.199 79.9781 144.225 80.4283 146.116C80.9234 147.961 81.6887 149.559 82.724 150.91C83.8044 152.26 85.1998 153.341 86.9104 154.151C88.6209 154.916 90.6916 155.299 93.1224 155.299C94.6529 155.299 96.0258 155.209 97.2412 155.029C98.4566 154.849 99.5369 154.646 100.482 154.421C101.428 154.151 102.26 153.858 102.981 153.543C103.701 153.228 104.353 152.935 104.939 152.665L107.842 161.106C106.357 162.006 104.263 162.816 101.563 163.536C98.8617 164.257 95.7332 164.617 92.1771 164.617ZM146.378 145.846C146.378 148.637 145.973 151.202 145.163 153.543C144.352 155.839 143.182 157.82 141.651 159.485C140.121 161.106 138.275 162.366 136.115 163.266C133.999 164.167 131.613 164.617 128.957 164.617C126.347 164.617 123.961 164.167 121.8 163.266C119.684 162.366 117.861 161.106 116.331 159.485C114.8 157.82 113.607 155.839 112.752 153.543C111.897 151.202 111.469 148.637 111.469 145.846C111.469 143.055 111.897 140.511 112.752 138.216C113.652 135.92 114.868 133.962 116.398 132.341C117.974 130.721 119.819 129.46 121.935 128.56C124.096 127.66 126.437 127.21 128.957 127.21C131.523 127.21 133.864 127.66 135.98 128.56C138.14 129.46 139.986 130.721 141.516 132.341C143.047 133.962 144.24 135.92 145.095 138.216C145.95 140.511 146.378 143.055 146.378 145.846ZM136.115 145.846C136.115 142.74 135.484 140.309 134.224 138.553C133.009 136.753 131.253 135.852 128.957 135.852C126.662 135.852 124.884 136.753 123.623 138.553C122.363 140.309 121.733 142.74 121.733 145.846C121.733 148.952 122.363 151.427 123.623 153.273C124.884 155.074 126.662 155.974 128.957 155.974C131.253 155.974 133.009 155.074 134.224 153.273C135.484 151.427 136.115 148.952 136.115 145.846ZM173.685 144.833C173.685 141.592 173.258 139.296 172.402 137.946C171.592 136.595 170.174 135.92 168.148 135.92C167.518 135.92 166.866 135.965 166.19 136.055C165.515 136.1 164.862 136.168 164.232 136.258V163.671H154.171V129.37C155.027 129.145 156.017 128.92 157.142 128.695C158.313 128.425 159.528 128.2 160.789 128.02C162.094 127.795 163.422 127.637 164.772 127.547C166.123 127.412 167.451 127.345 168.756 127.345C171.322 127.345 173.393 127.682 174.968 128.358C176.589 128.988 177.917 129.753 178.952 130.653C180.392 129.618 182.035 128.808 183.881 128.223C185.772 127.637 187.505 127.345 189.08 127.345C191.916 127.345 194.234 127.75 196.035 128.56C197.88 129.325 199.343 130.428 200.424 131.869C201.504 133.309 202.247 135.02 202.652 137C203.057 138.981 203.26 141.187 203.26 143.617V163.671H193.199V144.833C193.199 141.592 192.771 139.296 191.916 137.946C191.106 136.595 189.688 135.92 187.662 135.92C187.122 135.92 186.357 136.055 185.366 136.325C184.421 136.595 183.633 136.933 183.003 137.338C183.318 138.373 183.521 139.476 183.611 140.646C183.701 141.772 183.746 142.987 183.746 144.293V163.671H173.685V144.833ZM210.708 146.183C210.708 143.032 211.18 140.286 212.126 137.946C213.116 135.56 214.399 133.579 215.974 132.004C217.55 130.428 219.35 129.235 221.376 128.425C223.447 127.615 225.562 127.21 227.723 127.21C232.765 127.21 236.748 128.763 239.674 131.869C242.6 134.93 244.063 139.454 244.063 145.441C244.063 146.026 244.041 146.678 243.996 147.399C243.951 148.074 243.906 148.682 243.861 149.222H221.038C221.264 151.292 222.231 152.935 223.942 154.151C225.652 155.366 227.948 155.974 230.829 155.974C232.675 155.974 234.475 155.816 236.231 155.501C238.031 155.141 239.494 154.714 240.62 154.218L241.97 162.388C241.43 162.659 240.71 162.929 239.809 163.199C238.909 163.469 237.896 163.694 236.771 163.874C235.691 164.099 234.52 164.279 233.26 164.414C231.999 164.549 230.739 164.617 229.479 164.617C226.283 164.617 223.492 164.144 221.106 163.199C218.765 162.253 216.807 160.971 215.232 159.35C213.701 157.684 212.553 155.726 211.788 153.476C211.068 151.225 210.708 148.794 210.708 146.183ZM234.34 142.335C234.295 141.479 234.138 140.646 233.868 139.836C233.642 139.026 233.26 138.306 232.72 137.676C232.225 137.045 231.572 136.528 230.762 136.123C229.996 135.717 229.029 135.515 227.858 135.515C226.733 135.515 225.765 135.717 224.955 136.123C224.144 136.483 223.469 136.978 222.929 137.608C222.389 138.238 221.961 138.981 221.646 139.836C221.376 140.646 221.173 141.479 221.038 142.335H234.34ZM251.827 129.37C253.538 128.875 255.744 128.425 258.444 128.02C261.145 127.57 263.981 127.345 266.952 127.345C269.968 127.345 272.466 127.75 274.447 128.56C276.473 129.325 278.071 130.428 279.241 131.869C280.411 133.309 281.244 135.02 281.739 137C282.235 138.981 282.482 141.187 282.482 143.617V163.671H272.421V144.833C272.421 141.592 271.994 139.296 271.138 137.946C270.283 136.595 268.685 135.92 266.344 135.92C265.624 135.92 264.859 135.965 264.049 136.055C263.238 136.1 262.518 136.168 261.888 136.258V163.671H251.827V129.37ZM291.251 119.31L301.312 117.689V128.155H313.398V136.528H301.312V149.019C301.312 151.135 301.672 152.823 302.392 154.083C303.157 155.344 304.665 155.974 306.916 155.974C307.996 155.974 309.099 155.884 310.225 155.704C311.395 155.479 312.453 155.186 313.398 154.826L314.816 162.659C313.601 163.154 312.25 163.581 310.765 163.941C309.279 164.302 307.456 164.482 305.295 164.482C302.55 164.482 300.276 164.122 298.476 163.401C296.675 162.636 295.235 161.601 294.154 160.295C293.074 158.945 292.309 157.324 291.859 155.434C291.454 153.543 291.251 151.45 291.251 149.154V119.31ZM318.584 146.183C318.584 143.032 319.057 140.286 320.002 137.946C320.992 135.56 322.275 133.579 323.851 132.004C325.426 130.428 327.227 129.235 329.252 128.425C331.323 127.615 333.439 127.21 335.599 127.21C340.641 127.21 344.625 128.763 347.551 131.869C350.477 134.93 351.94 139.454 351.94 145.441C351.94 146.026 351.917 146.678 351.872 147.399C351.827 148.074 351.782 148.682 351.737 149.222H328.915C329.14 151.292 330.108 152.935 331.818 154.151C333.529 155.366 335.825 155.974 338.705 155.974C340.551 155.974 342.352 155.816 344.107 155.501C345.908 155.141 347.371 154.714 348.496 154.218L349.847 162.388C349.306 162.659 348.586 162.929 347.686 163.199C346.786 163.469 345.773 163.694 344.647 163.874C343.567 164.099 342.397 164.279 341.136 164.414C339.876 164.549 338.615 164.617 337.355 164.617C334.159 164.617 331.368 164.144 328.982 163.199C326.642 162.253 324.683 160.971 323.108 159.35C321.577 157.684 320.43 155.726 319.664 153.476C318.944 151.225 318.584 148.794 318.584 146.183ZM342.217 142.335C342.172 141.479 342.014 140.646 341.744 139.836C341.519 139.026 341.136 138.306 340.596 137.676C340.101 137.045 339.448 136.528 338.638 136.123C337.873 135.717 336.905 135.515 335.735 135.515C334.609 135.515 333.641 135.717 332.831 136.123C332.021 136.483 331.346 136.978 330.805 137.608C330.265 138.238 329.838 138.981 329.523 139.836C329.252 140.646 329.05 141.479 328.915 142.335H342.217Z" fill="#04312C"/>
<path d="M94.6125 106.118C85.6184 106.118 78.753 103.616 74.0165 98.6136C69.3331 93.611 66.9915 86.5061 66.9915 77.2991C66.9915 72.7222 67.7099 68.6509 69.1469 65.0852C70.5838 61.4663 72.5529 58.4327 75.0543 55.9846C77.5556 53.4833 80.5359 51.594 83.9952 50.3167C87.4545 49.0394 91.2065 48.4008 95.2512 48.4008C97.5928 48.4008 99.7216 48.5871 101.638 48.9596C103.553 49.2789 105.23 49.6781 106.667 50.1571C108.104 50.5828 109.301 51.0352 110.259 51.5142C111.217 51.9931 111.909 52.3657 112.335 52.6318L108.742 62.6903C107.039 61.7856 105.044 61.0139 102.755 60.3753C100.52 59.7366 97.9654 59.4173 95.0915 59.4173C93.1756 59.4173 91.2863 59.7366 89.4236 60.3753C87.6141 61.0139 85.9909 62.0517 84.554 63.4886C83.1703 64.8723 82.0527 66.6818 81.2011 68.917C80.3496 71.1522 79.9239 73.8665 79.9239 77.0596C79.9239 79.6142 80.19 82.0091 80.7222 84.2443C81.3076 86.4263 82.2123 88.3156 83.4364 89.9122C84.7137 91.5088 86.3635 92.7861 88.3858 93.744C90.4082 94.6488 92.8563 95.1011 95.7301 95.1011C97.5396 95.1011 99.1628 94.9947 100.6 94.7818C102.037 94.5689 103.314 94.3294 104.432 94.0633C105.549 93.744 106.534 93.3981 107.385 93.0256C108.237 92.653 109.008 92.3071 109.7 91.9878L113.133 101.966C111.377 103.031 108.902 103.989 105.709 104.84C102.516 105.692 98.8169 106.118 94.6125 106.118ZM158.693 83.925C158.693 87.2246 158.214 90.2581 157.256 93.0256C156.298 95.7398 154.915 98.0814 153.105 100.051C151.296 101.966 149.114 103.457 146.559 104.521C144.058 105.585 141.237 106.118 138.097 106.118C135.01 106.118 132.19 105.585 129.635 104.521C127.134 103.457 124.979 101.966 123.169 100.051C121.36 98.0814 119.949 95.7398 118.938 93.0256C117.927 90.2581 117.421 87.2246 117.421 83.925C117.421 80.6254 117.927 77.6184 118.938 74.9042C120.002 72.19 121.439 69.875 123.249 67.9591C125.112 66.0432 127.294 64.553 129.795 63.4886C132.349 62.4242 135.117 61.892 138.097 61.892C141.131 61.892 143.898 62.4242 146.399 63.4886C148.954 64.553 151.136 66.0432 152.946 67.9591C154.755 69.875 156.165 72.19 157.176 74.9042C158.188 77.6184 158.693 80.6254 158.693 83.925ZM146.559 83.925C146.559 80.2528 145.814 77.379 144.324 75.3034C142.887 73.1746 140.811 72.1102 138.097 72.1102C135.383 72.1102 133.281 73.1746 131.791 75.3034C130.301 77.379 129.555 80.2528 129.555 83.925C129.555 87.5971 130.301 90.5242 131.791 92.7062C133.281 94.835 135.383 95.8994 138.097 95.8994C140.811 95.8994 142.887 94.835 144.324 92.7062C145.814 90.5242 146.559 87.5971 146.559 83.925ZM167.907 64.4466C169.93 63.8611 172.537 63.3289 175.731 62.85C178.924 62.3178 182.277 62.0517 185.789 62.0517C189.355 62.0517 192.309 62.5307 194.65 63.4886C197.045 64.3933 198.934 65.6972 200.318 67.4003C201.702 69.1033 202.686 71.1256 203.272 73.4673C203.857 75.809 204.15 78.4167 204.15 81.2906V105H192.255V82.7275C192.255 78.8957 191.75 76.1815 190.739 74.5849C189.727 72.9883 187.838 72.19 185.071 72.19C184.219 72.19 183.314 72.2433 182.356 72.3497C181.399 72.4029 180.547 72.4827 179.802 72.5892V105H167.907V64.4466ZM233.117 43.0522C235.353 43.0522 237.189 43.2385 238.626 43.611C240.116 43.9836 241.367 44.3827 242.378 44.8085L240.302 54.1485C239.451 53.776 238.493 53.5099 237.428 53.3502C236.417 53.1906 235.379 53.1108 234.315 53.1108C232.878 53.1108 231.654 53.3236 230.643 53.7494C229.685 54.1219 228.913 54.6541 228.328 55.346C227.796 56.0378 227.396 56.8628 227.13 57.8207C226.917 58.7787 226.811 59.8164 226.811 60.9341V63.0096H241.5V72.9085H226.811V105H214.916V60.7744C214.916 55.346 216.433 51.0352 219.467 47.842C222.553 44.6488 227.104 43.0522 233.117 43.0522ZM260.26 105H248.365V63.0096H260.26V105ZM261.377 50.8755C261.377 53.0575 260.659 54.7872 259.222 56.0645C257.838 57.2885 256.188 57.9005 254.272 57.9005C252.356 57.9005 250.68 57.2885 249.243 56.0645C247.859 54.7872 247.168 53.0575 247.168 50.8755C247.168 48.6935 247.859 46.9905 249.243 45.7664C250.68 44.4892 252.356 43.8505 254.272 43.8505C256.188 43.8505 257.838 44.4892 259.222 45.7664C260.659 46.9905 261.377 48.6935 261.377 50.8755ZM296.742 73.5471C295.678 73.281 294.427 73.0149 292.99 72.7488C291.553 72.4295 290.01 72.2699 288.36 72.2699C287.615 72.2699 286.71 72.3497 285.646 72.5094C284.635 72.6158 283.863 72.7488 283.331 72.9085V105H271.436V65.2449C273.565 64.4998 276.066 63.8079 278.94 63.1693C281.867 62.4774 285.114 62.1315 288.68 62.1315C289.318 62.1315 290.09 62.1847 290.995 62.2912C291.899 62.3444 292.804 62.4508 293.709 62.6105C294.614 62.7169 295.518 62.8766 296.423 63.0895C297.328 63.2491 298.099 63.462 298.738 63.7281L296.742 73.5471ZM320.381 96.6977C321.551 96.6977 322.669 96.6711 323.733 96.6179C324.798 96.5647 325.649 96.4848 326.288 96.3784V87.3577C325.809 87.2512 325.091 87.1448 324.133 87.0383C323.175 86.9319 322.297 86.8787 321.498 86.8787C320.381 86.8787 319.316 86.9585 318.305 87.1182C317.347 87.2246 316.496 87.4641 315.75 87.8366C315.005 88.2092 314.42 88.7148 313.994 89.3534C313.568 89.992 313.356 90.7903 313.356 91.7483C313.356 93.611 313.968 94.9149 315.192 95.6599C316.469 96.3518 318.199 96.6977 320.381 96.6977ZM319.423 61.892C322.935 61.892 325.862 62.2912 328.204 63.0895C330.546 63.8878 332.408 65.032 333.792 66.5221C335.229 68.0123 336.24 69.8218 336.826 71.9505C337.411 74.0793 337.704 76.4476 337.704 79.0554V103.803C336.001 104.175 333.632 104.601 330.599 105.08C327.565 105.612 323.893 105.878 319.582 105.878C316.868 105.878 314.393 105.639 312.158 105.16C309.976 104.681 308.087 103.909 306.49 102.845C304.894 101.727 303.67 100.29 302.818 98.5338C301.967 96.7776 301.541 94.6222 301.541 92.0676C301.541 89.6195 302.02 87.5439 302.978 85.8409C303.989 84.1379 305.319 82.7808 306.969 81.7696C308.619 80.7584 310.508 80.0399 312.637 79.6142C314.766 79.1352 316.975 78.8957 319.263 78.8957C320.806 78.8957 322.163 78.9756 323.334 79.1352C324.558 79.2416 325.543 79.4013 326.288 79.6142V78.4966C326.288 76.4742 325.676 74.851 324.452 73.627C323.228 72.4029 321.099 71.7909 318.066 71.7909C316.043 71.7909 314.047 71.9505 312.078 72.2699C310.109 72.536 308.406 72.9351 306.969 73.4673L305.452 63.8878C306.144 63.6749 306.996 63.462 308.007 63.2491C309.071 62.983 310.216 62.7701 311.44 62.6105C312.664 62.3976 313.941 62.2379 315.272 62.1315C316.655 61.9718 318.039 61.892 319.423 61.892Z" fill="#04312C"/>
<path d="M13.0044 204.38C12.9886 198.968 13.9477 194.82 15.8819 191.935C17.7814 189.05 20.7604 187.602 24.819 187.59C27.3513 187.583 29.417 188.167 31.0161 189.341C32.5805 190.481 33.8168 192.143 34.7251 194.326C35.6249 193.595 36.6633 192.828 37.8404 192.027C38.9828 191.226 40.1946 190.442 41.4759 189.675C42.7224 188.873 44.0383 188.106 45.4237 187.374C46.7745 186.642 48.108 185.961 49.4244 185.333L49.451 194.439C48.2735 195.101 47.0787 195.781 45.8666 196.479C44.6544 197.141 43.477 197.838 42.3344 198.57C41.1917 199.267 40.1184 199.964 39.1144 200.661C38.0758 201.358 37.1412 202.054 36.3107 202.751L36.3224 206.757L49.4869 206.719L49.5106 214.836L13.9719 214.94C13.6198 213.172 13.3717 211.351 13.2274 209.478C13.0831 207.571 13.0087 205.871 13.0044 204.38ZM19.9234 203.891C19.9252 204.481 19.9441 205.018 19.9802 205.504C20.0162 205.955 20.0522 206.388 20.0881 206.805L29.8703 206.776L29.8636 204.486C29.8547 201.434 29.4667 199.25 28.6997 197.934C27.9327 196.618 26.63 195.962 24.7915 195.968C23.0223 195.973 21.7755 196.653 21.051 198.008C20.2917 199.328 19.9158 201.289 19.9234 203.891ZM35.9417 183.312C33.5135 183.319 31.3964 182.961 29.5905 182.238C27.7497 181.48 26.2205 180.496 25.0029 179.285C23.7852 178.075 22.8619 176.69 22.2329 175.13C21.6039 173.537 21.2869 171.907 21.282 170.242C21.2707 166.357 22.4585 163.283 24.8454 161.022C27.1977 158.76 30.6806 157.622 35.2942 157.609C35.7452 157.608 36.2482 157.624 36.8033 157.657C37.3238 157.69 37.7922 157.723 38.2085 157.757L38.2599 175.344C39.8551 175.166 41.1191 174.416 42.0518 173.095C42.9846 171.774 43.4477 170.004 43.4412 167.784C43.4371 166.362 43.3116 164.974 43.0648 163.622C42.7833 162.235 42.4504 161.109 42.0663 160.243L48.3593 159.184C48.5686 159.599 48.7784 160.154 48.9886 160.847C49.1987 161.54 49.3744 162.32 49.5157 163.187C49.6916 164.019 49.833 164.921 49.9399 165.892C50.0468 166.863 50.1017 167.834 50.1045 168.805C50.1117 171.268 49.7538 173.42 49.0307 175.26C48.3075 177.066 47.3233 178.578 46.078 179.796C44.798 180.979 43.2916 181.868 41.5589 182.463C39.8261 183.023 37.9537 183.306 35.9417 183.312ZM32.9226 165.109C32.2636 165.145 31.6222 165.269 30.9984 165.479C30.3745 165.654 29.8204 165.95 29.336 166.368C28.8514 166.751 28.454 167.255 28.1436 167.881C27.8331 168.471 27.6792 169.217 27.6818 170.119C27.6844 170.987 27.8426 171.732 28.1567 172.355C28.436 172.979 28.8191 173.498 29.306 173.913C29.7928 174.328 30.3662 174.656 31.026 174.897C31.651 175.103 32.2932 175.257 32.9526 175.359L32.9226 165.109ZM49.304 144.144C45.8403 145.923 41.7869 147.739 37.144 149.591C32.501 151.409 27.4414 153.14 21.9654 154.787L21.9413 146.566C23.2932 146.215 24.7663 145.812 26.3607 145.356C27.9202 144.866 29.5145 144.375 31.1435 143.885C32.7376 143.36 34.2972 142.852 35.822 142.362C37.3468 141.838 38.7329 141.331 39.9803 140.841C38.7302 140.394 37.3412 139.912 35.8134 139.396C34.2855 138.881 32.7231 138.382 31.126 137.901C29.4941 137.386 27.897 136.905 26.3347 136.458C24.7375 135.977 23.2621 135.565 21.9082 135.222L21.8848 127.209C27.3704 128.824 32.44 130.543 37.0937 132.368C41.7473 134.158 45.8111 135.933 49.2851 137.692L49.304 144.144ZM49.2195 115.224L49.2421 122.977L21.8726 123.057L21.85 115.304L49.2195 115.224ZM13.9388 114.598C15.361 114.594 16.4898 115.059 17.325 115.993C18.1255 116.893 18.5276 117.967 18.5312 119.216C18.5349 120.465 18.1392 121.559 17.3441 122.498C16.5142 123.402 15.3881 123.856 13.9658 123.86C12.5436 123.865 11.4322 123.417 10.6318 122.517C9.79649 121.583 9.37704 120.492 9.37339 119.243C9.36974 117.994 9.78286 116.917 10.6128 116.013C11.4079 115.074 12.5165 114.603 13.9388 114.598ZM35.7253 109.276C33.2971 109.283 31.18 108.925 29.3741 108.202C27.5334 107.444 26.0042 106.46 24.7865 105.249C23.5688 104.039 22.6455 102.654 22.0166 101.095C21.3875 99.501 21.0705 97.8715 21.0657 96.2065C21.0543 92.3213 22.2421 89.2479 24.6291 86.9861C26.9813 84.7244 30.4642 83.5868 35.0779 83.5734C35.5288 83.572 36.0319 83.5879 36.587 83.621C37.1074 83.6542 37.5758 83.6875 37.9922 83.7209L38.0436 101.308C39.6388 101.13 40.9027 100.381 41.8355 99.0597C42.7682 97.7387 43.2313 95.9682 43.2249 93.7482C43.2207 92.3259 43.0952 90.9387 42.8485 89.5866C42.5669 88.1998 42.2341 87.0734 41.8499 86.2073L48.1429 85.1482C48.3523 85.5639 48.562 86.1183 48.7722 86.8115C48.9824 87.5046 49.1581 88.2846 49.2994 89.1514C49.4752 89.9835 49.6166 90.885 49.7235 91.856C49.8304 92.8269 49.8853 93.7981 49.8882 94.7694C49.8954 97.2323 49.5374 99.384 48.8143 101.225C48.0911 103.031 47.1069 104.542 45.8616 105.76C44.5816 106.943 43.0752 107.832 41.3425 108.427C39.6097 108.987 37.7373 109.27 35.7253 109.276ZM32.7062 91.0731C32.0472 91.1098 31.4059 91.233 30.7821 91.443C30.1582 91.6183 29.604 91.9148 29.1196 92.3324C28.6351 92.7154 28.2376 93.2196 27.9272 93.8449C27.6168 94.4355 27.4628 95.1818 27.4655 96.0837C27.468 96.9509 27.6263 97.6963 27.9403 98.3198C28.2196 98.9433 28.6027 99.4626 29.0896 99.8774C29.5765 100.292 30.1498 100.62 30.8096 100.861C31.4346 101.067 32.0768 101.222 32.7362 101.324L32.7062 91.0731ZM33.3466 60.9446C35.985 61.6306 38.6062 62.3688 41.2102 63.159C43.8141 63.9146 46.4355 64.7221 49.0744 65.5816L49.092 71.6175C47.6369 72.2462 45.9044 72.9277 43.8946 73.662C41.8848 74.3964 39.7016 75.1659 37.3451 75.9706C34.9538 76.7408 32.4412 77.546 29.8073 78.3862C27.1386 79.1919 24.4525 79.9802 21.749 80.7513L21.7251 72.5821C22.9731 72.3009 24.3424 72.002 25.8332 71.6855C27.2891 71.3343 28.797 70.983 30.357 70.6316C31.9169 70.2454 33.4941 69.8593 35.0887 69.473C36.6485 69.0522 38.1562 68.6315 39.6119 68.211C38.0843 67.7645 36.522 67.3354 34.9251 66.9238C33.3281 66.4775 31.7659 66.0658 30.2385 65.6887C28.6763 65.277 27.1835 64.8998 25.7603 64.5571C24.3022 64.1798 22.9484 63.8542 21.6988 63.5803L21.6824 57.9607C22.9304 57.6795 24.2823 57.3634 25.7382 57.0123C27.1595 56.6612 28.65 56.2926 30.2099 55.9065C31.7351 55.5204 33.2949 55.117 34.8894 54.696C36.4839 54.2751 38.0436 53.8369 39.5686 53.3815C38.1104 52.9695 36.6003 52.5576 35.038 52.1459C33.4411 51.7343 31.8617 51.3574 30.2997 51.015C28.7376 50.638 27.2276 50.2956 25.7697 49.9876C24.2771 49.6451 22.906 49.3369 21.6564 49.063L21.6328 40.9979C24.3408 41.7531 27.0315 42.5431 29.705 43.3678C32.3436 44.158 34.8609 44.9485 37.2568 45.7393C39.6178 46.4956 41.8055 47.2523 43.8197 48.0096C45.8337 48.7322 47.5702 49.4036 49.0289 50.0237L49.0466 56.0596C46.4127 56.9345 43.7962 57.792 41.197 58.6322C38.5978 59.4723 35.981 60.2431 33.3466 60.9446Z" fill="#C3F98F"/>
</svg>